<?xml version="1.0" encoding="UTF-8"?>
<svg id="Layer_2" data-name="Layer 2" xmlns="http://www.w3.org/2000/svg" viewBox="0 0 729.1 191.2">
  <defs>
    <style>
      .cls-1 {
        fill: #faa21f;
      }

      .cls-2 {
        fill: #ef4137;
      }

      .cls-3 {
        fill: #6ab047;
      }

      .cls-4 {
        fill: #06592e;
      }
    </style>
  </defs>
  <g>
    <g>
      <path class="cls-4" d="M43.27,99.8c2.98,1.49,5.35,3.66,7.11,6.5,1.76,2.84,2.64,5.99,2.64,9.45v.81c0,4.95-1.76,9.18-5.29,12.7-3.52,3.52-7.75,5.28-12.7,5.28H0v-67.85h29.15c5.29,0,9.77,1.86,13.46,5.58,3.69,3.72,5.53,8.2,5.53,13.41v1.53c0,4.81-1.62,9.01-4.87,12.59ZM41.34,114.53v-.1c0-2.3-.81-4.25-2.44-5.84-1.63-1.59-3.63-2.39-5.99-2.39H11.68v11.27c0,1.97-.71,3.72-2.13,5.28l-2.74,2.74c-1.15,1.15-1.73,2.58-1.73,4.27v1.02l8.53-7.92h19.4c2.3,0,4.27-.81,5.89-2.44,1.63-1.63,2.44-3.59,2.44-5.89ZM11.68,78.37v19.4h15.44c2.58,0,4.77-.93,6.6-2.79,1.83-1.86,2.75-4.08,2.75-6.66v-.61c0-2.57-.92-4.77-2.75-6.6-1.83-1.83-4.02-2.74-6.6-2.74h-15.44Z"/>
      <path class="cls-4" d="M94.98,84.77h11.68v49.16h-11.58v-1.62c3.52-2.98,5.28-5.65,5.28-8.03v-2.03c-.13.34-.37.8-.71,1.37-.34.58-1.08,1.61-2.23,3.1-1.15,1.49-2.39,2.81-3.71,3.96-1.32,1.15-3.1,2.18-5.34,3.1-2.23.91-4.57,1.37-7.01,1.37-6.44,0-11.93-2.29-16.51-6.86-4.57-4.57-6.86-10.07-6.86-16.51v-4.67c0-6.43,2.29-11.94,6.86-16.51,4.58-4.57,10.07-6.86,16.51-6.86,5.62,0,10.16,1.66,13.61,4.98v-3.96ZM94.98,111.49v-4.06c0-3.32-1.15-6.15-3.46-8.48-2.3-2.34-5.11-3.51-8.43-3.51h-1.42c-3.32,0-6.14,1.17-8.48,3.51-2.34,2.34-3.5,5.16-3.5,8.48v4.06c0,3.32,1.17,6.15,3.5,8.48,2.34,2.34,5.17,3.5,8.48,3.5h1.42c3.32,0,6.13-1.17,8.43-3.5,2.3-2.34,3.46-5.16,3.46-8.48Z"/>
      <path class="cls-4" d="M127.66,133.93h-11.68v-67.75h11.68v67.75Z"/>
      <path class="cls-4" d="M171.97,84.77h11.68v49.16h-11.58v-1.62c3.52-2.98,5.28-5.65,5.28-8.03v-2.03c-.13.34-.37.8-.71,1.37-.34.58-1.08,1.61-2.23,3.1-1.15,1.49-2.39,2.81-3.71,3.96-1.32,1.15-3.1,2.18-5.34,3.1-2.23.91-4.57,1.37-7.01,1.37-6.44,0-11.93-2.29-16.51-6.86-4.57-4.57-6.86-10.07-6.86-16.51v-4.67c0-6.43,2.29-11.94,6.86-16.51,4.58-4.57,10.07-6.86,16.51-6.86,5.62,0,10.16,1.66,13.61,4.98v-3.96ZM171.97,111.49v-4.06c0-3.32-1.15-6.15-3.46-8.48-2.3-2.34-5.11-3.51-8.43-3.51h-1.42c-3.32,0-6.14,1.17-8.48,3.51-2.34,2.34-3.5,5.16-3.5,8.48v4.06c0,3.32,1.17,6.15,3.5,8.48,2.34,2.34,5.17,3.5,8.48,3.5h1.42c3.32,0,6.13-1.17,8.43-3.5,2.3-2.34,3.46-5.16,3.46-8.48Z"/>
      <path class="cls-4" d="M228.12,66.18h11.68v67.75h-11.58v-1.62c3.52-2.98,5.28-5.65,5.28-8.03v-2.03c-.13.34-.37.8-.71,1.37-.34.58-1.08,1.61-2.23,3.1-1.15,1.49-2.39,2.81-3.71,3.96-1.32,1.15-3.1,2.18-5.34,3.1-2.23.91-4.57,1.37-7.01,1.37-6.44,0-11.93-2.29-16.51-6.86-4.57-4.57-6.86-10.07-6.86-16.51v-4.67c0-6.43,2.29-11.94,6.86-16.51,4.58-4.57,10.07-6.86,16.51-6.86,5.62,0,10.16,1.66,13.61,4.98v-22.55ZM228.12,111.49v-4.06c0-3.32-1.15-6.15-3.46-8.48-2.3-2.34-5.11-3.51-8.43-3.51h-1.42c-3.32,0-6.14,1.17-8.48,3.51-2.34,2.34-3.5,5.16-3.5,8.48v4.06c0,3.32,1.17,6.15,3.5,8.48,2.34,2.34,5.17,3.5,8.48,3.5h1.42c3.32,0,6.13-1.17,8.43-3.5,2.3-2.34,3.46-5.16,3.46-8.48Z"/>
      <path class="cls-4" d="M255.24,77.76h-.61c-1.56,0-2.86-.53-3.91-1.58-1.05-1.05-1.58-2.35-1.58-3.91v-.61c0-1.56.53-2.86,1.58-3.91,1.04-1.05,2.35-1.58,3.91-1.58h.61c1.56,0,2.88.54,3.96,1.63s1.63,2.37,1.63,3.86v.61c0,1.49-.54,2.78-1.63,3.86-1.08,1.08-2.41,1.63-3.96,1.63ZM260.83,133.93h-11.68v-49.16h11.68v49.16Z"/>
    </g>
    <g>
      <path class="cls-3" d="M208.99,148.17c0,.1-.07.24-.14.3,0,0-.07.03-.1.1-.7.77-5.14,5.82-17.48,5.82-8.17,0-14.76-2.86-22.05-3.06h-.67c-10.99,0-20.1,6.52-23.5,11.33-2.72,3.87-4.13,7.06-4.13,7.06l-.87,2.29c-.14.37-.23.67-.3.97-.4,1.38-.64,2.72-.64,3.93,0,1.11.2,2.12.61,2.96.27.57.81,1.18,1.68,1.48.4.1.84.14,1.24.14,1.85,0,3.7-.94,5.44-2.49,2.52-2.22,4.4-5.41,5.52-8.27.91-2.29,1.07-4.71,1.07-4.71v-.17c.07-.57.34-1.01.94-1.01.47.03.74.37.74.97v.2c0,.1-.03.2-.07.3-.67,2.82-2.45,6.15-2.45,6.15-1.21,2.52-2.96,5.21-5.18,7.16-2.08,1.85-4.34,2.93-6.62,2.93-.24,0-.47,0-.74-.03-1.85-.14-3.13-.87-3.83-2.22-.5-1.04-.77-2.32-.81-3.73v-.44c0-1.61.4-7.53,5.88-14.72.5-.67,8.3-10.25,22.15-11.03,1.54-.17,2.99-.24,4.44-.24,3.46,0,6.69.4,10.01.91,3.76.54,7.66,1.18,12.14,1.21h.27c11.63,0,16.68-4.37,16.71-4.44.06-.07.17-.1.27-.1.14,0,.27.03.34.14.07.1.14.2.14.3ZM177.59,154.89c.17.07.3.24.3.54-.03.17-.34.3-.57.3-.27,0-1.48.07-3.26,1.85-2.25,2.22-3.6,5.28-5.24,8.17-.7,1.18-1.41,2.39-2.15,3.73l-.74,1.28c1.45.24,2.55.41,3.5.41,1.75,0,2.86-.5,4.1-1.68.07-.07.17-.1.27-.1.13,0,.23.03.34.13.07.07.1.17.1.27,0,.13-.03.24-.14.34-1.65,1.58-3.29,2.42-6.05,2.42-.87,0-1.85-.1-2.99-.27-8.54,14.59-11.83,17.85-16,18.72-.67.14-1.31.2-1.88.2-4.64,0-4.74-3.13-4.74-3.6,0-.2.4-.44.44-.44.23,0,.4.2.4.44,0,.07.06,1.55,1.61,2.29.14.07.81.37,1.75.37.37,0,.77-.03,1.24-.17,2.52-.71,5.44-3.43,11.83-13.98-.03.07,2.22-3.93,2.22-4.24,0,0-.67-.1-1.11-.1-2.25,0-3.7.7-4.27.7-.03,0-.1.07-.1.07-.07.03-.14.07-.2.07-.17,0-.3-.07-.37-.2-.03-.07-.07-.17-.07-.24,0-.14.07-.27.2-.37.1-.07,2.55-1.55,6.09-1.55.34,0,.67,0,1.01.03l2.05-3.53s0-.07.03-.1c.23-.4.94-1.65,1.98-3.23,2.22-3.36,5.11-7.73,9.38-8.5.24-.03.47-.03.67-.03h.37Z"/>
      <path class="cls-3" d="M185.51,175c0,.07-.03.13-.07.2-2.82,5.08-5.81,7.73-9.17,7.73-1.51,0-2.49-.54-2.86-1.21-.2-.4-.3-.84-.3-1.31,0-1.75,1.31-4.14,3.76-7.36,1.15-1.48,2.36-3.03,3.16-4.77l.17-.37h-.2c-2.02,0-3.16-.71-3.8-1.35l-4.81,8.61c-.1.17-.23.24-.37.24-.07,0-.17-.03-.24-.07-.13-.07-.2-.2-.2-.34,0-.07.03-.17.07-.24l4.97-8.94c-.34-.54-.44-1.14-.44-1.68,0-.44.07-.81.2-1.14.07-.17.17-.34.27-.5.24-.3.5-.57.81-.74.67-.47,1.41-.57,1.95-.57.47,0,.77.07.77.07l-2.15,3.83c-.1.2-.34.6-.37.71.7.97,2.19,1.41,4.03,1.41.84,0,1.78-.1,2.76-.27,0,0-1.04,2.39-3.46,5.88l-.5.74c-1.07,1.55-2.38,3.36-3.26,4.84-.24.44-.61,1.41-.61,2.22,0,.6.24,1.11.84,1.21.14.03.27.03.4.03.91,0,2.12-.47,3.2-1.28,1.54-1.21,3.13-3.09,4.64-5.82.07-.14.2-.2.37-.2.07,0,.14,0,.2.03.13.1.23.23.23.4Z"/>
      <path class="cls-3" d="M198.34,174.83c0,.07,0,.14-.03.2-2.19,3.87-5.11,7.87-10.08,7.87-4,0-4.81-2.45-4.81-4.34,0-.34.03-.64.07-.91.27-1.88.98-3.53,2.22-5.61,1.51-2.49,4.64-6.28,8-6.28.4,0,1.82,0,2.59,1.14.3.41.47.98.47,1.58,0,.57-.14,1.21-.47,1.85-2.05,4-6.28,4.71-9.28,4.88-.17.34-.31.71-.44,1.04-.37,1.01-.54,1.88-.54,2.59,0,2.08,1.35,2.99,3.06,2.99h.27c2.86-.13,5.45-2.35,8.2-7.19.07-.13.2-.2.37-.2.07,0,.14,0,.2.03.13.07.2.2.2.37ZM187.45,174.32c2.19-.24,5.81-1.14,7.33-4.34.3-.67.44-1.28.44-1.75,0-.91-.47-1.41-1.21-1.41-1.71,0-4.87,4.6-6.55,7.5Z"/>
      <path class="cls-3" d="M211.58,174.96c0,.07,0,.13-.03.2-2.76,4.91-5.95,7.73-11.93,7.73-1.15,0-2.02-.34-2.62-1.01-.17-.2-.31-.4-.4-.61-.1-.23-.14-.47-.14-.67,0-.64.34-1.18.4-1.28.44-.64,1.08-.94,1.61-.94.14,0,.24,0,.34.03.37.13.64.5.64,1.01,0,.3-.07.64-.3,1.01-.27.5-.67.94-1.11,1.11.31.2.74.34,1.31.34h.31c1.75-.14,3.49-2.82,3.83-6.86.3-3.5,1.14-6.25,2.66-7.73-3.93,1.04-5.65,4-7.46,7.26l-.37.64c-.07.13-.2.24-.37.24-.07,0-.14-.03-.2-.07-.14-.07-.2-.2-.2-.37,0-.07,0-.14.03-.2l.37-.67c2.28-4.1,4.6-8.1,11.63-8.1.27,0,.44.2.44.44s-.17.44-.44.44h-.14c-2.83,0-3.09,4.14-3.39,8.2-.24,3.06-1.18,5.24-2.66,6.49,3.83-1.04,5.65-3.73,7.4-6.82.1-.14.23-.2.4-.2.07,0,.13,0,.2.03.14.1.2.23.2.37Z"/>
      <path class="cls-3" d="M232.25,174.96c0,.07,0,.13-.03.2-2.82,5.08-5.81,7.7-9.18,7.7-1.51,0-2.49-.5-2.86-1.18-.2-.37-.3-.84-.3-1.31,0-1.75,1.31-4.1,3.76-7.33.98-1.31,3.46-4.2,3.46-5.58,0-.2-.07-.34-.17-.47-.13-.17-.37-.2-.57-.2-.1,0-.24.03-.31.03-.87.13-1.75.6-2.69,1.28-3.87,2.82-6.62,7.23-7.67,9.11,0,0-.03.03-3.06,5.41h-2.76l14.08-25.18h2.76l-7.43,13.28c2.22-2.56,4.94-4.98,7.43-4.98.74,0,1.48.13,1.85.74.2.3.3.67.3,1.18,0,1.18-.64,3.03-2.62,5.85-1.28,1.88-2.89,4.03-3.7,5.68-.27.54-.37,1.01-.37,1.38,0,.84.57,1.24,1.45,1.24s2.12-.44,3.2-1.28c1.54-1.21,3.12-3.09,4.64-5.78.07-.17.2-.24.34-.24.07,0,.17.03.24.07.13.07.2.2.2.37Z"/>
    </g>
  </g>
  <g>
    <path class="cls-1" d="M436.96,82c-.42-1.18-.92-2.46-1.52-3.77l-.64-.39s-2.59-1.56-6.71-3.45c-1.15-.52-2.49-1.11-3.99-1.71,3.94,3.42,6.52,8.17,7.19,14.44.61,5.74-.37,12.82-1.96,19.44-.06.05-.12.1-.17.14,3.94-32.36-20.17-38.44-34.46-39.24h0c-1.23.12-2.43.29-3.6.51-1.21.23-2.4.52-3.56.87,30,13.25,28.08,47.67,28.08,47.67.09,5.11-.21,15.43-3.33,27.83v.04c-.49,2.02-1.04,4.1-1.68,6.22-3.54,12.26-7.66,20.99-13.75,28.45-.06.09-.11.18-.18.27.16-.12,5.2-4.18,11.89-11.67,3.24-3.6,8.94-10.4,14.52-19.34.03-.05.06-.1.08-.14h0c7.09-11.39,13.95-26.21,15.27-42.29,1.31-9.57.67-17.99-1.46-23.89Z"/>
    <path class="cls-1" d="M413.03,117.53h0c-.27-41.81-31.84-42.76-31.84-42.76,10.18,20.21,10.45,51.44,10.45,51.44h0s0,0,0,0c.57,3.29,1.7,12.07.36,24.74-1.63,15.55-9.74,6.47-6.36-12.29-6.81,6.13-14.04,6.33-16.15,6.23,1.27,1.69,2.57,4.99,1.59,11.23-1.71,10.83-15.03,8.66-12.12-1.44,6.99-13.8,10.36-27.65,11.96-36.7,2.79-13.11,2.77-29.52,2.32-40.47-.47.48-.93.97-1.37,1.48-1.29,1.48-3.07,2.41-5.01,2.63-1.95.21-3.88-.32-5.45-1.49-1.55-1.17-3.39-2.46-5.45-3.73,1.65,13.48-.57,35.08-.57,35.08-.66,6.86-4.31,34.33-14.43,39.27-10.65,5.2-5.88-7.22-3.04-19.46,2.85-12.24-5.57-20.92-9.22-17.61-3.63,3.31.21,16.6-3.53,23.98-3.74,7.37-7.55.62-7.55.62-9.06.41-12.94-7.57-14.11-10.68h0c-.24-.63-.36-1.07-.39-1.18.31,1.36.63,2.67.94,3.91,0,0,0,.01,0,.01,9.13,35.69,20.98,23.37,20.98,23.37-1.25,15.96,9.5,16.11,9.5,16.11.28.87.6,1.71.95,2.51,0,0,8.17,13.86,20.92,17.01l6.01-5.22,4.44,5.16c2.93-.75,6-2.16,9.19-4.42.36-3.61,3.55-6.29,7.19-6.01,2.36.18,4.35,1.57,5.39,3.52,4.09-.84,9.5-5.24,15-19.23,4.72-12.04,7.12-22.46,8.3-30.5h0s0-.07.01-.11c1.03-6.99,1.14-12.16,1.08-15Z"/>
    <path class="cls-1" d="M340.1,80.43s-26.23-12.39-28.01,10.75c0,0,0,0,0,0-.3,5.22,1.42,12.67,2.46,17.7,1.17,5.72,2.33,11.79-.32,10.53-2.38-1.13-7.01-21.76-5.11-36.54-1.58,2.51-2.82,5.25-3.7,8.15-.54,1.77-1.01,3.57-1.41,5.39.54.32,1.04.72,1.49,1.19,1.23,1.31,1.87,3.01,1.81,4.8-.08,2.38-1.39,4.43-3.3,5.56,1.3.29,2.48.96,3.4,1.95,1.22,1.31,1.87,3.01,1.81,4.8-.11,3.28-2.57,5.94-5.71,6.42,2.25,7.35,5.54,12.69,9.85,14.12,6.82,2.27,12.15-1.46,11.5-14.96-.65-13.49,7.62-10.94,12.12-5.58,4.5,5.37,3.42,14.58,1.96,19.75-1.46,5.17-2.81,11.28-2.81,11.28,3.67-.72,6.07-3.02,7.65-5.68h0s0,0,0,0c0,0,0,0,0,0,0,0,.01-.03.03-.06.35-.6.66-1.21.93-1.83.01-.03.03-.05.04-.08,0,0,0,0,0,0,4.25-8.74,19.48-44.05-4.68-57.66Z"/>
    <path class="cls-1" d="M387.51,182.51c-.92-1.46-2.5-2.48-4.35-2.63-2.71-.21-5.13,1.54-5.87,4.05-.11.37-.18.76-.21,1.16-.24,3.11,2.1,5.84,5.21,6.08,3.12.24,5.84-2.1,6.08-5.21.1-1.26-.23-2.46-.86-3.46Z"/>
    <path class="cls-2" d="M433.95,76.22c-1.17-.64-3.04-1.62-5.43-2.72-2.64-1.21-5.14-2.2-7.42-3.01h0c-3.72-1.32-6.88-2.17-9.2-2.69-7.64-1.72-14.71-1.99-20.99-.8-.6.11-1.19.24-1.77.38h0c-1.03.24-2.04.53-3.02.87-4.89,1.63-9.22,4.27-12.94,7.89-.71.69-1.39,1.41-2.06,2.18-1.13,1.29-2.68,2.11-4.37,2.29-1.7.19-3.38-.27-4.74-1.3-1.74-1.31-3.84-2.77-6.21-4.2.01.1.03.21.04.31-.01-.11-.03-.21-.05-.31-4.1-2.47-9-4.83-14.29-6.13-4.57-1.13-8.96-1.35-13.06-.65-4.77.81-9.21,2.86-13.21,6.12-2.17,1.76-4.1,3.82-5.76,6.12-.29.4-.57.8-.84,1.21-1.8,2.74-3.2,5.75-4.17,8.95-.52,1.72-.98,3.46-1.37,5.23-.72-.29-1.48-.45-2.28-.48-.24,0-.48,0-.71.01-3.37.25-6.09,3.02-6.21,6.47-.06,1.79.58,3.5,1.81,4.8.93.99,2.11,1.66,3.4,1.95-1.91,1.13-3.22,3.18-3.3,5.56-.06,1.79.58,3.5,1.81,4.8,1.07,1.14,2.47,1.86,4,2.06.67,6.66,2.17,13.29,4.49,19.83-.77-.99-1.73-2.3-2.78-3.88-2.37-3.59-5.7-9.4-8.09-16.68-2.68-8.18-3.67-16.51-2.92-24.77.93-10.32,4.59-20.57,10.87-30.44.06-.08,1.19-1.77,3.45-4,2.14-2.11,5.73-5.12,10.73-7.52,5.62-2.7,11.83-4.09,18.46-4.13,8.31-.05,17.31,2.02,26.74,6.17,2.81,1.24,6.03,1.2,8.84-.1,6.35-2.94,22.84-9.16,38.63-3.29,8.94,3.32,16.28,10.03,21.87,19.96,0,0,0,0,0,0,.71,1.26,1.39,2.57,2.04,3.94Z"/>
    <path class="cls-1" d="M308.16,114.69c.05-1.51-.49-2.95-1.53-4.06-.98-1.04-2.28-1.67-3.69-1.77-.07,0-.14,0-.21-.01-.02,0-.03,0-.05,0-.13,0-.26,0-.38,0-.17,0-.33.02-.5.04-.17.02-.34.05-.5.09-2.48.53-4.38,2.7-4.47,5.35-.05,1.51.5,2.95,1.53,4.06.85.9,1.94,1.49,3.14,1.7.17.03.33.05.5.07.1,0,.21.02.31.02.06,0,.13,0,.19,0,.23,0,.47-.01.69-.04,2.72-.34,4.87-2.61,4.96-5.44Z"/>
    <path class="cls-1" d="M306.25,102.37c.05-1.51-.49-2.95-1.53-4.06-.29-.31-.61-.59-.96-.82-.15-.1-.29-.19-.45-.27-.15-.08-.3-.16-.46-.23-.57-.25-1.19-.41-1.83-.45-.09,0-.17-.01-.26-.01-.23,0-.46,0-.69.02-2.81.25-5.06,2.57-5.15,5.46-.05,1.51.5,2.95,1.53,4.06,1.04,1.1,2.44,1.74,3.95,1.79.33.01.65,0,.97-.05.17-.02.34-.05.51-.09.17-.04.34-.09.5-.14,1.24-.42,2.3-1.25,2.99-2.35.52-.83.84-1.8.88-2.84Z"/>
    <path class="cls-3" d="M364.82,51.44s-13.84-3.83-12.76-23.45c0,0,3.44,15.07,11.3,19.02,0,0,5.72-7.38.8-17.1-4.91-9.72-14.07-15.67-15.51-16.42,0,0-5.98,7.74-3.4,19.63,2.58,11.89,11.93,17.74,15.5,19.88,0,0-16.43-3.13-20.44-20.56-4-17.43,7.18-31.03,8.64-32.45,0,0,16.89,14.01,21.05,29.78,1.91,7.24,1.14,14.86-5.19,21.66h0Z"/>
    <path class="cls-3" d="M371.4,31.2s4.58-5.54,11.65-7.03c0,0,6.61,25.01-9.71,28.59,0,0-5.11-6.16,1.92-14.85,0,0-3.59,8.32-1.12,12.36,0,0,10.69-1.97,4.34-20.06,0,0-3.13.87-6.48,5.09,0,0,.09-2.44-.59-4.1h0Z"/>
  </g>
  <g>
    <path class="cls-3" d="M558.69,175.98c-.39,2.64-1.36,3.94-2.85,3.94s-2.98-1.38-4.51-4.24c-1.09-1.99-1.93-4.07-2.5-6.14-.18-.78-.48-1.9-.79-3.42,0,3.11-.09,5.28-.26,6.45-.39,3.07-1.31,4.63-2.76,4.63-2.1,0-4.42-3.72-7.01-11.2.09,1.43.13,2.55.18,3.33.66,4.67.48,9.34-1.62,13.76-2.8,5.8-8.36,9.95-15.24,7.31-6.44-2.34-11.91-9.78-11.74-16.78.61-6.41,2.39-7.95,2.54-8.35,3.78-5.48,18.61,1.95,21.5,3.94.61.39,1.01.78,1.27,1.17.04.26.09.52.18.78v.22c-.31.61-1.66.61-3.11-.39-3.02-2.12-15.12-9.27-18.67-4.31-.08.22-.41,1.04-.45,1.17-2.36,5.57-1.24,8.59.9,12.65,2.15,4.11,4.9,6.79,8.23,8,5.08,1.86,9.63-1.25,11.96-5.49,1.88-3.42,2.54-6.49,2.5-9.56h.04v-.78c0-4.67-.22-9-.66-13.02-.22-1.77-.35-2.64-.35-2.6,0-.69.35-1.08,1.01-1.08s1.01.3,1.18.91c.18,1.47.31,2.55.35,3.33.48,2.77,1.75,6.62,3.94,11.55,1.23,2.68,2.15,3.98,2.85,3.98s1.23-1.56,1.53-4.76c.18-1.69.26-3.76.26-6.23,0-.78-.04-1.9-.18-3.42-.09-1.51-.13-2.64-.13-3.42,0-.22.04-.43.22-.65.18-.3.39-.43.66-.43.39,0,.7.26.92.78.18.43.26.82.22,1.25-.04,1.64.39,4.15,1.36,7.53.79,2.68,1.58,4.97,2.36,6.88,1.49,3.5,2.72,5.28,3.68,5.28s1.53-2.03,1.62-6.14v-.52l-.26-4.89c-.22-3.68-.35-5.54-.35-5.58-.35-2.98-.92-4.46-1.8-4.46-.22,0-.44.13-.74.43s-.53.48-.7.48c-.09,0-.22-.04-.35-.13-.26-.17-.35-.48-.22-.82.09-.39.44-.69,1.01-.95.48-.26.88-.35,1.23-.35,1.01,0,1.8.48,2.28,1.43,1.97,3.76-.39,18.64,4.34,18.64.35,0,.61.39.61.82,0,.39-.26.78-.61.78-1.36,0-2.36-.48-3.07-1.3ZM544.29,154.44c-.44-.35-.7-.74-.7-1.21,0-.95.48-1.38,1.45-1.38,1.45,0,2.19.39,2.19,1.17,0,1.25-.53,1.9-1.62,1.9-.44,0-.88-.17-1.31-.48ZM546.08,150.33c-.44-.35-.7-.74-.7-1.21,0-.91.48-1.38,1.45-1.38,1.45,0,2.19.39,2.19,1.17,0,1.3-.53,1.9-1.62,1.9-.44,0-.88-.17-1.31-.48ZM548.18,154.44c-.44-.35-.66-.74-.66-1.21,0-.95.48-1.38,1.45-1.38,1.45,0,2.15.39,2.15,1.17,0,1.25-.53,1.9-1.58,1.9-.44,0-.92-.17-1.36-.48ZM561.11,176.5c0-.43.26-.82.61-.82,5.74,0,.88-13.58.88-16.27,0-.91.39-1.34,1.18-1.34.96,0,1.75,1.6,2.32,4.8.61,3.46,2.01,14.41-4.38,14.41-.35,0-.61-.39-.61-.78ZM564.79,180.05c0-.78-.7-1.17-2.19-1.17-.96,0-1.45.43-1.45,1.38,0,.48.26.87.7,1.21.44.3.88.48,1.31.48,1.09,0,1.62-.65,1.62-1.9ZM568.6,180.05c0-.78-.7-1.17-2.15-1.17-.96,0-1.45.43-1.45,1.38,0,.48.22.87.66,1.21.48.3.92.48,1.36.48,1.05,0,1.58-.65,1.58-1.9ZM574.86,176.59c-.13,2.29-.66,5.28-2.41,6.88-.61.61-1.49.95-2.41,1.12-.88.22-1.71.13-1.58-.65.09-.52.7-.82,1.27-.69.18.04.39.04.61-.04,7.14-2.55-.22-20.12-1.18-25.65-.18-1.47,1.36-2.38,2.19-.61.44.95.92,2.47,1.45,4.63.88,3.63,1.66,7.31,1.88,11.03.04.78.04,1.38.48,2.03s1.14,1.04,2.1,1.04c.35,0,.61.39.61.82,0,.39-.26.78-.61.78-1.01,0-1.8-.26-2.41-.69ZM576.64,176.5c0-.43.26-.82.61-.82h7.05c-2.36-2.12-3.85-5.93-4.64-8.48-.44-1.34-1.84-5.49.57-6.19-.74-.99.79-3.81,1.66-4.46,7.18-5.84,14.28,14.41,8.93,19.55-.88.82-1.84,1.21-2.93,1.17-4.51,0,8.19,0-10.64,0-.35,0-.61-.39-.61-.78ZM581.81,153.31c-.44-.35-.66-.74-.66-1.21,0-.95.48-1.38,1.45-1.38,1.45,0,2.15.39,2.15,1.17,0,1.25-.53,1.9-1.58,1.9-.48,0-.92-.17-1.36-.48ZM581.46,161.49c.13.17.22.74.26,1.69.04.91,2.89,15.66,7.31,12.03,3.5-2.86.61-12.55-1.8-15.49-1.8-2.12-3.24-2.77-4.29-1.9-.83.69-1.36,1.82-1.58,3.46h-.13c.09.04.13.13.22.22Z"/>
    <g>
      <path class="cls-4" d="M487.41,144.59c-2.42,0-4.58,1.07-6.06,2.77-1.22,1.41-1.96,3.24-1.96,5.25,0,4.42,3.6,8.02,8.02,8.02s8.02-3.6,8.02-8.02h0c0-4.43-3.6-8.02-8.02-8.02Z"/>
      <path class="cls-4" d="M511.64,147.34c-1.47-1.68-3.63-2.75-6.04-2.75-4.42,0-8.01,3.59-8.02,8.01h0c0,4.44,3.6,8.03,8.02,8.03s8.02-3.6,8.02-8.02c0-2.02-.75-3.86-1.98-5.27Z"/>
      <path class="cls-4" d="M524.68,107.05v9.36c0,10.3-2.66,18.89-8.06,25.79-1.07,1.37-2.2,2.61-3.37,3.72-1.87-2.13-4.61-3.48-7.66-3.48-3.97,0-7.42,2.29-9.09,5.62-1.67-3.33-5.12-5.62-9.1-5.62-3.06,0-5.82,1.36-7.68,3.51-1.18-1.11-2.32-2.36-3.4-3.74-5.4-6.9-8.06-15.5-8.06-25.79v-12.74h10.95s0,0,0,0v11.36c0,4.25.47,7.96,1.41,11.14,2.43,7.64,8.37,12.63,15.88,12.63s13.38-4.99,15.81-12.63c.71-2.33,1.17-5.1,1.33-8.17h-20.43c0-10.72,2.19-19.32,6.5-26.01,4.38-6.69,10.17-10.08,17.29-10.08h4.69v14.43h-4.69c-4.46,0-7.9,2.54-10.48,7.64h15.1c-2.71,3.51-6.51,8.66-5.81,9.32.69.65,5.51-3.35,8.86-6.26Z"/>
      <path class="cls-4" d="M712.75,136.57c0,4.42-3.6,8.02-8.02,8.02s-8.02-3.6-8.02-8.02c0-.54.05-1.07.16-1.58.12-.6.31-1.18.55-1.73,1.26-2.78,4.06-4.72,7.31-4.72s6.05,1.94,7.31,4.72c.24.55.43,1.12.55,1.73.11.51.16,1.04.16,1.58Z"/>
      <path class="cls-4" d="M712.75,136.57c0,4.42-3.6,8.02-8.02,8.02s-8.02-3.6-8.02-8.02c0-.54.05-1.07.16-1.58.12-.6.31-1.18.55-1.73,1.26-2.78,4.06-4.72,7.31-4.72s6.05,1.94,7.31,4.72c.24.55.43,1.12.55,1.73.11.51.16,1.04.16,1.58Z"/>
      <path class="cls-4" d="M718.14,82.32v28.05c0,1.75-.29,4.01-.13,7.5.31,6.66,1.59,10.26.77,10.63-.53.24-1.98-.89-6.19-7.72h-92.39c-6.54,4.34-8.31,5.1-8.53,4.81-.36-.46,3.82-3.22,5.52-8.39.9-2.74.82-5.29.57-7.14v-43.87h-11.03v44.4c0,6.79-1.88,10.19-5.56,10.19h-4.92v-.11h-21.78c-3.79,1.78-8.17,3.67-8.53,3.05-.35-.59,3.65-2.24,5.48-5.97,3.61-7.31-3.32-18.11-8.64-23.52-2.11-2.15-4.61-3.91-7.5-5.3-2.34-1.12-5.97-1.74-10.93-1.94-.11,0-.23-.02-.35-.02-.06,0-.13,0-.2,0-.08,0-.16,0-.23,0h-2.92v12.36c12.87,0,18.92,5.62,19.77,18.21.12,1.76-1.29,3.24-3.05,3.24h-25.25v14.22h162.36c.14-.93.41-1.83.8-2.69.92-2.02,2.43-3.65,4.27-4.7,1.54-.9,3.32-1.4,5.18-1.4,4.06,0,7.77,2.39,9.46,6.1.38.86.66,1.76.79,2.69,4.56-.04,8.12-2.16,10.68-6.48,2.27-3.72,3.44-8.38,3.44-14.01v-32.18h-10.95Z"/>
    </g>
  </g>
</svg>