<?xml version="1.0" encoding="UTF-8"?>
<svg id="Layer_2" data-name="Layer 2" xmlns="http://www.w3.org/2000/svg" viewBox="0 0 448.52 855.31">
  <defs>
    <style>
      .cls-1 {
        fill: #faa21f;
      }

      .cls-2 {
        fill: #6baf49;
      }

      .cls-3 {
        fill: #ef4137;
      }

      .cls-4 {
        fill: #07582d;
      }
    </style>
  </defs>
  <g>
    <path class="cls-2" d="M301.01,720.74c0,.32-.21.74-.42.95,0,0-.21.11-.32.32-2.2,2.42-16.08,18.19-54.66,18.19-25.55,0-46.16-8.94-68.97-9.57h-2.1c-34.39,0-62.87,20.39-73.5,35.43-8.51,12.09-12.93,22.08-12.93,22.08l-2.73,7.15c-.42,1.15-.73,2.1-.94,3.05-1.26,4.31-2,8.51-2,12.3,0,3.47.64,6.62,1.9,9.25.84,1.78,2.52,3.68,5.26,4.63,1.26.32,2.63.42,3.89.42,5.79,0,11.57-2.95,17.03-7.78,7.9-6.94,13.78-16.93,17.25-25.86,2.84-7.15,3.36-14.72,3.36-14.72v-.52c.21-1.78,1.05-3.15,2.95-3.15,1.47.11,2.31,1.15,2.31,3.05v.63c0,.32-.11.63-.21.95-2.1,8.83-7.67,19.24-7.67,19.24-3.78,7.89-9.25,16.3-16.19,22.4-6.52,5.79-13.56,9.15-20.7,9.15-.74,0-1.47,0-2.32-.11-5.77-.42-9.78-2.73-11.98-6.94-1.58-3.26-2.42-7.25-2.52-11.67v-1.37c0-5.04,1.26-23.55,18.39-46.04,1.58-2.1,25.97-32.07,69.29-34.49,4.83-.52,9.36-.74,13.88-.74,10.82,0,20.92,1.26,31.32,2.84,11.77,1.68,23.97,3.68,37.96,3.78h.84c36.38,0,52.16-13.66,52.26-13.88.2-.21.52-.32.84-.32.42,0,.84.11,1.05.42.21.31.42.63.42.94ZM202.82,741.77c.52.21.94.74.94,1.69-.11.52-1.05.94-1.79.94-.84,0-4.62.21-10.19,5.79-7.05,6.93-11.25,16.5-16.4,25.55-2.2,3.68-4.41,7.47-6.73,11.67l-2.31,3.99c4.53.74,7.99,1.27,10.94,1.27,5.47,0,8.93-1.58,12.82-5.26.21-.21.53-.31.85-.31.41,0,.73.11,1.05.42.21.21.32.52.32.84,0,.42-.11.74-.42,1.05-5.15,4.94-10.3,7.57-18.92,7.57-2.73,0-5.79-.31-9.36-.84-26.7,45.63-37.01,55.83-50.05,58.56-2.1.42-4.1.63-5.88.63-14.52,0-14.82-9.77-14.82-11.25,0-.63,1.26-1.37,1.37-1.37.73,0,1.26.63,1.26,1.37,0,.21.2,4.84,5.04,7.15.42.21,2.52,1.16,5.47,1.16,1.15,0,2.42-.11,3.89-.52,7.88-2.21,17.03-10.72,37-43.74-.11.21,6.94-12.3,6.94-13.25,0,0-2.1-.31-3.46-.31-7.05,0-11.57,2.2-13.35,2.2-.11,0-.32.21-.32.21-.21.11-.42.21-.64.21-.52,0-.94-.21-1.15-.63-.11-.21-.21-.52-.21-.74,0-.42.21-.84.64-1.15.32-.21,7.99-4.84,19.03-4.84,1.05,0,2.1,0,3.16.11l6.41-11.04c0-.11,0-.21.11-.32.73-1.26,2.93-5.15,6.2-10.09,6.94-10.51,15.98-24.18,29.33-26.6.74-.11,1.47-.11,2.11-.11h1.15Z"/>
    <path class="cls-2" d="M227.6,804.64c0,.21-.11.42-.21.63-8.83,15.87-18.18,24.18-28.69,24.18-4.74,0-7.79-1.69-8.94-3.79-.62-1.26-.94-2.63-.94-4.09,0-5.47,4.1-12.93,11.77-23.03,3.58-4.63,7.37-9.46,9.89-14.93l.53-1.15h-.64c-6.3,0-9.89-2.21-11.88-4.21l-15.04,26.91c-.32.52-.73.74-1.15.74-.21,0-.53-.11-.74-.21-.41-.21-.62-.63-.62-1.05,0-.21.11-.53.21-.74l15.55-27.97c-1.05-1.68-1.37-3.57-1.37-5.26,0-1.37.21-2.52.64-3.57.21-.53.52-1.06.84-1.58.74-.95,1.58-1.79,2.52-2.32,2.11-1.47,4.42-1.78,6.1-1.78,1.47,0,2.42.21,2.42.21l-6.73,11.98c-.32.63-1.05,1.89-1.15,2.21,2.2,3.05,6.83,4.41,12.61,4.41,2.63,0,5.57-.32,8.63-.84,0,0-3.26,7.47-10.83,18.4l-1.58,2.31c-3.36,4.84-7.46,10.52-10.19,15.14-.74,1.37-1.9,4.41-1.9,6.94,0,1.89.74,3.46,2.63,3.78.42.11.85.11,1.26.11,2.84,0,6.62-1.47,9.99-3.99,4.83-3.79,9.78-9.67,14.51-18.19.21-.42.64-.63,1.15-.63.21,0,.42,0,.64.11.41.31.73.73.73,1.26Z"/>
    <path class="cls-2" d="M267.72,804.11c0,.21,0,.42-.11.64-6.83,12.09-15.98,24.6-31.53,24.6-12.51,0-15.04-7.68-15.04-13.56,0-1.05.11-2,.21-2.84.84-5.89,3.05-11.03,6.94-17.56,4.72-7.78,14.51-19.65,25.02-19.65,1.26,0,5.68,0,8.1,3.57.94,1.27,1.47,3.05,1.47,4.94,0,1.78-.42,3.78-1.47,5.78-6.41,12.51-19.65,14.72-29.01,15.25-.53,1.05-.96,2.21-1.37,3.26-1.15,3.15-1.69,5.89-1.69,8.1,0,6.52,4.21,9.36,9.57,9.36h.84c8.94-.42,17.04-7.36,25.65-22.5.21-.42.64-.63,1.15-.63.21,0,.42,0,.64.11.41.21.62.63.62,1.15ZM233.66,802.54c6.83-.74,18.18-3.58,22.92-13.56.94-2.1,1.37-3.99,1.37-5.47,0-2.84-1.47-4.41-3.8-4.41-5.36,0-15.24,14.4-20.49,23.44Z"/>
    <path class="cls-2" d="M309.12,804.53c0,.21,0,.42-.11.63-8.63,15.35-18.61,24.18-37.32,24.18-3.58,0-6.32-1.05-8.2-3.15-.53-.63-.96-1.26-1.26-1.9-.32-.73-.42-1.47-.42-2.1,0-2,1.05-3.68,1.26-3.99,1.37-2,3.37-2.95,5.04-2.95.42,0,.74,0,1.06.11,1.15.42,1.99,1.57,1.99,3.15,0,.95-.21,2-.94,3.15-.85,1.58-2.11,2.95-3.48,3.47.96.63,2.32,1.06,4.1,1.06h.96c5.47-.42,10.92-8.83,11.98-21.45.94-10.94,3.57-19.56,8.31-24.18-12.3,3.26-17.66,12.51-23.34,22.71l-1.15,2c-.21.42-.64.74-1.15.74-.21,0-.42-.11-.64-.21-.42-.21-.62-.63-.62-1.15,0-.21,0-.42.09-.63l1.17-2.1c7.14-12.83,14.4-25.34,36.38-25.34.84,0,1.37.63,1.37,1.37s-.53,1.37-1.37,1.37h-.42c-8.84,0-9.67,12.93-10.62,25.65-.74,9.57-3.69,16.4-8.31,20.29,11.98-3.26,17.66-11.67,23.13-21.34.31-.42.73-.63,1.26-.63.21,0,.41,0,.62.11.42.31.64.73.64,1.15Z"/>
    <path class="cls-2" d="M373.75,804.53c0,.21,0,.42-.11.63-8.83,15.87-18.18,24.07-28.71,24.07-4.72,0-7.78-1.57-8.93-3.68-.62-1.16-.94-2.63-.94-4.1,0-5.47,4.1-12.83,11.77-22.92,3.05-4.1,10.83-13.15,10.83-17.45,0-.63-.21-1.06-.53-1.47-.41-.52-1.15-.63-1.78-.63-.32,0-.74.11-.96.11-2.73.42-5.47,1.89-8.4,3.99-12.09,8.83-20.72,22.6-23.98,28.49,0,0-.09.11-9.56,16.93h-8.63l44.05-78.74h8.63l-23.24,41.53c6.94-8,15.46-15.56,23.24-15.56,2.31,0,4.62.42,5.79,2.31.62.95.94,2.1.94,3.68,0,3.68-2,9.46-8.2,18.29-3.99,5.89-9.04,12.61-11.56,17.76-.85,1.69-1.17,3.16-1.17,4.31,0,2.63,1.79,3.89,4.53,3.89s6.62-1.37,9.99-3.99c4.83-3.78,9.77-9.67,14.51-18.08.21-.52.62-.74,1.05-.74.21,0,.53.11.74.21.41.21.62.63.62,1.15Z"/>
  </g>
  <g>
    <path class="cls-4" d="M74.4,643.97c5.13,2.56,9.2,6.29,12.23,11.18,3.02,4.89,4.54,10.31,4.54,16.24v1.4c0,8.51-3.02,15.78-9.09,21.84-6.05,6.06-13.33,9.08-21.83,9.08H0v-116.68h50.13c9.09,0,16.8,3.2,23.14,9.6,6.34,6.4,9.52,14.09,9.52,23.05v2.62c0,8.27-2.78,15.49-8.38,21.66ZM71.09,669.3v-.17c0-3.96-1.39-7.31-4.19-10.05-2.8-2.73-6.24-4.1-10.31-4.1H20.08v19.39c0,3.38-1.22,6.4-3.67,9.08l-4.71,4.72c-1.98,1.98-2.97,4.43-2.97,7.33v1.75l14.67-13.63h33.37c3.96,0,7.33-1.39,10.13-4.19,2.8-2.8,4.19-6.17,4.19-10.13ZM20.08,607.12v33.36h26.55c4.43,0,8.2-1.6,11.35-4.8,3.15-3.21,4.72-7.01,4.72-11.44v-1.05c0-4.42-1.58-8.2-4.72-11.35s-6.92-4.72-11.35-4.72h-26.55Z"/>
    <path class="cls-4" d="M163.32,618.13h20.09v84.54h-19.92v-2.79c6.05-5.13,9.07-9.72,9.07-13.8v-3.49c-.23.58-.63,1.37-1.22,2.36-.59.99-1.86,2.77-3.84,5.33-1.98,2.56-4.11,4.83-6.37,6.81-2.28,1.98-5.33,3.75-9.18,5.33-3.84,1.57-7.86,2.36-12.05,2.36-11.07,0-20.52-3.94-28.39-11.79-7.86-7.86-11.79-17.32-11.79-28.39v-8.03c0-11.06,3.94-20.53,11.79-28.39,7.87-7.86,17.32-11.79,28.39-11.79,9.66,0,17.47,2.86,23.41,8.56v-6.81ZM163.32,664.06v-6.99c0-5.7-1.98-10.57-5.94-14.58-3.96-4.02-8.79-6.03-14.5-6.03h-2.45c-5.7,0-10.56,2.01-14.59,6.03-4.02,4.02-6.02,8.88-6.02,14.58v6.99c0,5.71,2.01,10.57,6.02,14.59,4.03,4.02,8.89,6.02,14.59,6.02h2.45c5.7,0,10.53-2.01,14.5-6.02,3.96-4.02,5.94-8.88,5.94-14.59Z"/>
    <path class="cls-4" d="M219.52,702.66h-20.09v-116.51h20.09v116.51Z"/>
    <path class="cls-4" d="M295.7,618.13h20.09v84.54h-19.92v-2.79c6.05-5.13,9.07-9.72,9.07-13.8v-3.49c-.23.58-.63,1.37-1.22,2.36-.59.99-1.86,2.77-3.84,5.33-1.98,2.56-4.11,4.83-6.37,6.81-2.28,1.98-5.33,3.75-9.18,5.33-3.84,1.57-7.86,2.36-12.05,2.36-11.07,0-20.52-3.94-28.39-11.79-7.86-7.86-11.79-17.32-11.79-28.39v-8.03c0-11.06,3.94-20.53,11.79-28.39,7.87-7.86,17.32-11.79,28.39-11.79,9.66,0,17.47,2.86,23.41,8.56v-6.81ZM295.7,664.06v-6.99c0-5.7-1.98-10.57-5.94-14.58-3.96-4.02-8.79-6.03-14.5-6.03h-2.45c-5.7,0-10.56,2.01-14.59,6.03-4.02,4.02-6.02,8.88-6.02,14.58v6.99c0,5.71,2.01,10.57,6.02,14.59,4.03,4.02,8.89,6.02,14.59,6.02h2.45c5.7,0,10.53-2.01,14.5-6.02,3.96-4.02,5.94-8.88,5.94-14.59Z"/>
    <path class="cls-4" d="M392.26,586.16h20.09v116.51h-19.92v-2.79c6.05-5.13,9.07-9.72,9.07-13.8v-3.49c-.23.58-.63,1.37-1.22,2.36-.59.99-1.86,2.77-3.84,5.33-1.98,2.56-4.11,4.83-6.37,6.81-2.28,1.98-5.33,3.75-9.18,5.33-3.84,1.57-7.86,2.36-12.05,2.36-11.07,0-20.52-3.94-28.39-11.79-7.86-7.86-11.79-17.32-11.79-28.39v-8.03c0-11.06,3.94-20.53,11.79-28.39,7.87-7.86,17.32-11.79,28.39-11.79,9.66,0,17.47,2.86,23.41,8.56v-38.77ZM392.26,664.06v-6.99c0-5.7-1.98-10.57-5.94-14.58-3.96-4.02-8.79-6.03-14.5-6.03h-2.45c-5.7,0-10.56,2.01-14.59,6.03-4.02,4.02-6.02,8.88-6.02,14.58v6.99c0,5.71,2.01,10.57,6.02,14.59,4.03,4.02,8.89,6.02,14.59,6.02h2.45c5.7,0,10.53-2.01,14.5-6.02,3.96-4.02,5.94-8.88,5.94-14.59Z"/>
    <path class="cls-4" d="M438.91,606.07h-1.04c-2.68,0-4.93-.9-6.72-2.71-1.81-1.81-2.72-4.04-2.72-6.73v-1.05c0-2.68.91-4.91,2.72-6.72,1.79-1.81,4.04-2.71,6.72-2.71h1.04c2.68,0,4.95.94,6.81,2.8,1.86,1.86,2.8,4.08,2.8,6.63v1.05c0,2.56-.94,4.78-2.8,6.64-1.86,1.86-4.14,2.8-6.81,2.8ZM448.52,702.66h-20.09v-84.54h20.09v84.54Z"/>
  </g>
  <g>
    <path class="cls-1" d="M432.3,238.99c-1.24-3.45-2.68-7.16-4.44-10.99l-1.86-1.13c-.07-.05-7.55-4.56-19.56-10.04-3.34-1.53-7.26-3.23-11.63-4.99,11.49,9.96,19.01,23.82,20.94,42.08,1.77,16.73-1.07,37.38-5.71,56.65-.17.14-.34.28-.51.42,11.47-94.32-58.79-112.02-100.44-114.35h-.02c-3.57.35-7.07.84-10.48,1.5-3.54.67-7.01,1.51-10.38,2.53,87.43,38.62,81.85,138.93,81.85,138.93.27,14.89-.61,44.96-9.71,81.11v.12c-1.42,5.88-3.02,11.95-4.9,18.12-10.32,35.73-22.32,61.16-40.09,82.93-.17.25-.33.53-.53.78.46-.36,15.16-12.18,34.64-34.02,9.45-10.49,26.06-30.31,42.32-56.36.08-.14.17-.28.23-.42h0c20.67-33.18,40.64-76.39,44.5-123.24,3.83-27.89,1.96-52.44-4.24-69.63Z"/>
    <path class="cls-1" d="M362.55,342.52h0c-.8-121.85-92.79-124.63-92.79-124.63,29.67,58.89,30.45,149.92,30.45,149.92h0s0,0,0,0c1.67,9.58,4.96,35.19,1.05,72.09-4.75,45.31-28.39,18.86-18.55-35.82-19.85,17.86-40.92,18.44-47.07,18.15,3.71,4.91,7.48,14.55,4.64,32.72-4.97,31.56-43.81,25.24-35.32-4.2,20.37-40.21,30.21-80.59,34.85-106.97,8.14-38.22,8.09-86.04,6.77-117.94-1.37,1.39-2.7,2.84-4,4.32-3.76,4.31-8.96,7.02-14.61,7.65-5.68.62-11.32-.92-15.87-4.35-4.52-3.41-9.87-7.16-15.89-10.88,4.79,39.28-1.66,102.24-1.66,102.24-1.91,20-12.56,100.06-42.04,114.46-31.03,15.15-17.14-21.03-8.86-56.71,8.3-35.68-16.23-60.96-26.86-51.32-10.57,9.65.61,48.38-10.27,69.88-10.9,21.48-22,1.82-22,1.82-26.41,1.19-37.73-22.06-41.12-31.11h0c-.69-1.85-1.05-3.1-1.15-3.44.91,3.97,1.82,7.77,2.75,11.4,0,.01,0,.03,0,.04,26.61,104.01,61.15,68.1,61.15,68.1-3.66,46.51,27.68,46.96,27.68,46.96.83,2.55,1.76,4.98,2.76,7.32,0,0,23.81,40.39,60.96,49.58l17.51-15.22,12.94,15.05c8.54-2.19,17.5-6.3,26.78-12.87,1.06-10.52,10.36-18.34,20.95-17.52,6.88.53,12.67,4.58,15.72,10.25,11.93-2.45,27.69-15.27,43.7-56.04,13.76-35.09,20.74-65.46,24.2-88.88h0c.01-.11.03-.21.04-.32,2.99-20.36,3.32-35.43,3.15-43.72Z"/>
    <path class="cls-1" d="M150.01,234.39s-76.45-36.12-81.64,31.32c0,0,0,0,0,0-.87,15.21,4.14,36.94,7.16,51.58,3.42,16.67,6.78,34.37-.94,30.7-6.93-3.31-20.43-63.41-14.91-106.49-4.6,7.32-8.22,15.31-10.79,23.76-1.56,5.17-2.93,10.41-4.11,15.71,1.58.93,3.04,2.09,4.33,3.47,3.57,3.81,5.45,8.78,5.28,14-.22,6.93-4.05,12.9-9.61,16.2,3.78.85,7.21,2.81,9.92,5.69,3.57,3.81,5.44,8.78,5.28,14-.31,9.57-7.48,17.32-16.63,18.7,6.56,21.42,16.14,36.98,28.7,41.14,19.88,6.6,35.41-4.26,33.53-43.59-1.89-39.33,22.22-31.89,35.33-16.26,13.12,15.64,9.98,42.49,5.71,57.55-4.26,15.08-8.18,32.87-8.18,32.87,10.69-2.1,17.69-8.79,22.29-16.55h0s0,0,0-.02c0,0,0-.01.01-.02.01-.03.04-.09.09-.17,1.02-1.74,1.92-3.52,2.7-5.32.04-.08.08-.15.11-.23,0,0,0,0,0-.01,12.4-25.48,56.77-128.38-13.64-168.04Z"/>
    <path class="cls-1" d="M288.19,531.91c-2.69-4.26-7.29-7.24-12.69-7.65-7.91-.61-14.96,4.48-17.11,11.81-.32,1.08-.53,2.21-.62,3.38-.7,9.07,6.12,17.03,15.19,17.73,9.08.7,17.03-6.12,17.73-15.19.28-3.68-.67-7.17-2.5-10.08Z"/>
    <path class="cls-3" d="M195.71,218.91c-11.94-7.19-26.24-14.07-41.65-17.87-13.31-3.28-26.12-3.93-38.06-1.9-13.89,2.35-26.84,8.35-38.49,17.83-6.32,5.14-11.96,11.13-16.79,17.85-.84,1.15-1.65,2.33-2.44,3.53-5.24,7.98-9.33,16.76-12.16,26.09-1.51,5.01-2.86,10.09-4.01,15.23-2.09-.84-4.32-1.31-6.64-1.39-.7-.02-1.4,0-2.08.04-9.83.73-17.76,8.79-18.08,18.87-.17,5.22,1.7,10.19,5.28,14,2.71,2.89,6.14,4.84,9.92,5.69-5.56,3.29-9.39,9.27-9.61,16.2-.17,5.22,1.7,10.19,5.28,14,3.12,3.32,7.19,5.41,11.65,6,1.95,19.41,6.32,38.74,13.07,57.78-2.24-2.89-5.04-6.7-8.1-11.32-6.91-10.46-16.62-27.4-23.59-48.62-7.82-23.83-10.69-48.11-8.51-72.18,2.72-30.08,13.38-59.94,31.67-88.72.16-.24,3.47-5.17,10.06-11.66,6.23-6.14,16.71-14.93,31.28-21.92,16.38-7.87,34.48-11.92,53.81-12.05,24.22-.15,50.44,5.9,77.94,17.98,8.19,3.6,17.58,3.49,25.77-.29,18.52-8.58,66.58-26.69,112.59-9.59,26.05,9.68,47.44,29.22,63.75,58.18,0,0,0,0,0,0,2.06,3.67,4.05,7.49,5.96,11.47-3.41-1.87-8.86-4.73-15.82-7.91-7.7-3.52-14.97-6.41-21.62-8.78h0c-10.85-3.86-20.06-6.32-26.82-7.84-22.28-5.02-42.86-5.8-61.16-2.33-1.74.33-3.46.7-5.16,1.11h0c-3,.71-5.93,1.56-8.81,2.52-14.24,4.75-26.86,12.45-37.72,23-2.06,2.01-4.07,4.12-6.01,6.34-3.29,3.77-7.81,6.14-12.75,6.68-4.95.55-9.85-.8-13.82-3.79-5.07-3.82-11.19-8.08-18.11-12.25"/>
    <path class="cls-1" d="M56.94,334.24c.14-4.41-1.44-8.6-4.46-11.82-2.84-3.03-6.64-4.85-10.76-5.17-.21-.02-.41-.03-.61-.04-.05,0-.1,0-.14,0-.37-.01-.75-.01-1.11,0-.49,0-.97.05-1.45.11-.5.06-.99.14-1.46.25-7.23,1.56-12.77,7.88-13.02,15.6-.14,4.41,1.44,8.61,4.46,11.82,2.47,2.63,5.65,4.35,9.14,4.96.49.09.97.15,1.47.19.3.03.6.05.9.06.18,0,.37.01.55,0,.68,0,1.36-.04,2.02-.12,7.93-.98,14.19-7.62,14.46-15.85Z"/>
    <path class="cls-1" d="M51.35,298.35c.14-4.41-1.44-8.6-4.46-11.82-.85-.91-1.79-1.71-2.79-2.38-.42-.29-.85-.55-1.3-.79-.43-.24-.88-.47-1.34-.66-1.67-.73-3.47-1.18-5.33-1.33-.25-.02-.5-.03-.76-.04-.68-.02-1.35,0-2.02.06-8.19.72-14.74,7.49-15.02,15.91-.14,4.41,1.45,8.6,4.46,11.82,3.02,3.21,7.1,5.07,11.51,5.21.96.03,1.91-.02,2.83-.16.5-.06.99-.16,1.48-.27.5-.11.99-.25,1.46-.42,3.62-1.21,6.7-3.65,8.72-6.84,1.53-2.41,2.45-5.24,2.55-8.29Z"/>
    <path class="cls-2" d="M222.05,149.91s-40.35-11.17-37.19-68.33c0,0,10.04,43.92,32.94,55.44,0,0,16.66-21.52,2.34-49.84-14.32-28.33-41.01-45.66-45.19-47.86,0,0-17.41,22.55-9.9,57.21,7.52,34.65,34.76,51.71,45.16,57.95,0,0-47.9-9.13-59.56-59.91C138.99,43.79,171.57,4.14,175.82,0c0,.01,49.22,40.83,61.35,86.8,5.56,21.11,3.32,43.3-15.12,63.11h0Z"/>
    <path class="cls-2" d="M241.23,90.94s13.35-16.13,33.95-20.48c0,0,19.27,72.88-28.31,83.31,0,0-14.89-17.97,5.59-43.28,0,0-10.45,24.24-3.28,36.03,0,0,31.14-5.74,12.66-58.47,0,0-9.13,2.53-18.89,14.83,0,0,.26-7.1-1.72-11.94h0Z"/>
  </g>
</svg>