<?xml version="1.0" encoding="UTF-8"?>
<svg xmlns="http://www.w3.org/2000/svg" viewBox="0 0 400 400">
  <defs>
    <style>
      .cls-1 {
        fill: #ffbc8f;
      }

      .cls-2 {
        fill: #d3b297;
      }

      .cls-3 {
        fill: #834b38;
        opacity: .5;
      }

      .cls-4 {
        isolation: isolate;
      }

      .cls-5 {
        fill: #dbffeb;
        stroke: #dbffeb;
      }

      .cls-6 {
        fill: #7a5230;
      }

      .cls-7 {
        fill: #a05635;
      }

      .cls-8 {
        fill: #b6d1c1;
        stroke: #b6d1c1;
      }

      .cls-9 {
        fill: #5b3c24;
      }

      .cls-10 {
        fill: #f2b186;
      }

      .cls-11 {
        fill: #ee4036;
        opacity: .8;
      }

      .cls-12 {
        fill: #af8264;
      }

      .cls-13 {
        fill: #c98b61;
      }

      .cls-14 {
        fill: #543722;
      }

      .cls-15 {
        fill: #ffdfc7;
      }

      .cls-16 {
        fill: #fff;
        mix-blend-mode: color-dodge;
      }
    </style>
  </defs>
  <g class="cls-4">
    <g id="angry_people_set" data-name="angry people set">
      <g>
        <g>
          <ellipse class="cls-8" cx="179.17" cy="221" rx="178.91" ry="62.15"/>
          <ellipse class="cls-5" cx="179.17" cy="210.54" rx="178.91" ry="62.15"/>
          <path class="cls-7" d="M311.37,158.64c0,8.86-.11,17.74-.38,25.65-.13,3.91-.31,7.58-.52,10.87-.52,7.91-1.28,13.69-2.36,15.62-3.82,6.87-21.48,29.4-97.51,36-10.65.93-22.45,1.54-35.51,1.76-106.3,1.74-121.98-26.14-128.95-35.73-1.67-2.29-2.8-8.37-3.57-16.45-.41-4.25-.71-9.03-.94-14.11t0,0c-.33-7.37-.51-15.34-.58-23.14-.06-4.67-.08-9.27-.08-13.65,0-1.88,0-3.73.01-5.51,0-2.43,0-4.76.02-6.93.02-6.92.04-12.37-.06-15.18,0-.32-.02-.61-.03-.85-.03-.45-.02-.89.01-1.35.14-1.84.75-3.69,1.81-5.52.36-.6.74-1.21,1.19-1.8,5.91-8.06,20.12-15.83,39.22-21.98,8.72-2.81,18.47-5.28,28.91-7.28,18.3-3.53,38.74-5.62,59.56-5.62,25.95,0,51.97,1.9,74.34,5.71,28.4,4.83,50.92,12.73,59.97,23.68,1,1.24,1.84,2.51,2.51,3.81.97,1.91,1.56,3.92,1.72,6,.13,1.61.25,3.56.36,5.79.15,2.91.29,6.3.4,10.04.05,1.51.09,3.08.13,4.7.13,4.66.23,9.72.28,14.94.04,3.47.06,7.01.06,10.55Z"/>
          <path d="M155.97,158.3c-81.51,0-114.25-23.97-115.46-40.44-.03-.29-.04-.59-.04-.88,0-.52.03-1.06.1-1.63.22-1.69.78-3.41,1.66-5.11.38-.75.83-1.49,1.33-2.21,8.62-12.63,33.56-23.36,68.43-29.46,17.69-3.09,37.75-4.99,59.63-5.63,72.62-2.15,119.85,13.04,134.43,29.03,1.81,1.96,3.1,3.96,3.84,5.93.61,1.61.86,3.2.74,4.74h0c-.95,11.77-15.88,39.73-133.75,45.15-7.3.33-14.26.49-20.9.49ZM184.72,73.68c-4.27,0-8.63.06-13.08.19-21.84.64-41.85,2.53-59.49,5.61-34.63,6.05-59.35,16.65-67.83,29.07-.47.69-.9,1.39-1.27,2.11-.83,1.6-1.36,3.22-1.56,4.8-.07.53-.1,1.03-.1,1.51,0,.26,0,.53.03.8.55,7.47,8.95,18.52,30.86,27.15,17.39,6.85,49.64,14.48,104.55,11.96,45.87-2.11,80.81-7.93,103.86-17.32,22.93-9.34,28.43-19.83,29.01-26.99.11-1.4-.12-2.86-.68-4.34-.7-1.86-1.93-3.76-3.66-5.64-13.11-14.37-55.99-28.92-120.64-28.92Z"/>
          <path class="cls-2" d="M311.37,158.64c-9.55,6.04-25.15,15.05-40.42,19.96-24.4,7.84-82.77,17.42-153.35,6.1-52.1-8.36-70.49-20.05-76.54-25.6-.06-4.67-.07-9.28-.07-13.65,6.11,8.41,41.07,32.47,129.76,34.88,85.77,2.34,130.31-25,140.57-32.24.04,3.47.06,7.01.06,10.55Z"/>
          <path class="cls-3" d="M311.37,158.64c0,8.86-.11,17.74-.38,25.65-.13,3.91-.31,7.58-.52,10.87-.52,7.91-1.28,13.69-2.36,15.62-3.82,6.87-21.48,29.4-97.51,36,9.59-3.86,14.68-5.69,28.24-10.51,4.62-1.65,27.53-8.16,31.32-11.28,9.9-8.11,9.57-18.08,13.56-30.24,1.63-4.98,3.61-9.9,4.26-15.11.65-5.2-.21-10.86-3.67-14.8-4.76-5.41-13.72-1.45-17.39-6.76-3.89-5.65,2.67-16.72,5.93-21.29,8.41-11.81,23.05-19.47,37.64-18.38.15,2.91.29,6.3.4,10.04.05,1.51.09,3.08.13,4.7.13,4.66.23,9.72.28,14.94.04,3.47.06,7.01.06,10.55Z"/>
          <path class="cls-9" d="M311.04,133.15c-2.14,6.08-10.12,8.89-18.1,12.08-8.35,3.34-6.68,6.27-17.96,14.2-11.28,7.93-20.88-3.76-30.06,2.08-9.19,5.85-.42,30.07-9.19,30.49-8.77.42-7.09-25.47-10.02-20.46-2.93,5.01,3.76,21.29,2.08,29.23-1.67,7.93-15.87,6.27-16.7-2.08-.83-8.35-.83-24.65-7.52-29.24-6.68-4.59-6.26,5.44-12.11,8.77-5.84,3.34-10.43-5.01-23.8-8.77-13.36-3.76-30.06,1.68-36.33,2.51-6.27.83-2.51,2.93-1.67,15.45.83,12.53-5.02,19.63-16.71,18.8-11.69-.84-11.69-17.96-11.27-27.15.42-9.19-3.76-13.79-10.44-16.29-6.68-2.51-6.27-2.09-12.53-6.68-6.27-4.59-10.03-6.69-10.44,3.34-.42,10.02-5.43,20.05-13.78,17.95-8.35-2.08-10.44-15.04-10.44-26.3,0-6.45-1.64-9.61-3.04-11.15,0-2.43,0-4.76.02-6.93.02-6.92.04-12.37-.06-15.18,0-.32-.02-.61-.03-.85-.03-.45-.02-.89.01-1.35.14-1.84.75-3.69,1.81-5.52.36-.6.74-1.21,1.19-1.8,5.91-8.06,20.12-15.83,39.22-21.98l162.81-7.19c28.4,4.83,50.92,12.73,59.97,23.68,1,1.24,1.84,2.51,2.51,3.81.97,1.91,1.56,3.92,1.72,6,.29,3.71.56,9.23.75,15.83.05,1.51.09,3.08.13,4.7Z"/>
          <path class="cls-2" d="M310.99,184.29c-.13,3.91-.3,7.58-.52,10.87-9.61,6.03-24.73,14.63-39.53,19.4-24.4,7.85-82.77,17.43-153.35,6.1-48.32-7.75-67.64-18.37-75.02-24.29-.4-4.25-.71-9.03-.94-14.12,7.66,9.05,43.16,31.7,129.11,34.06,84.9,2.32,129.4-24.44,140.25-32.01Z"/>
          <path class="cls-6" d="M310.91,127.46c-2.72,3.88-7.41,7.36-13.86,10.56-5.47,2.71-11.74,3.91-16.67,7.54-2.71,2-4.93,4.67-7.89,6.27-9.14,4.91-23.35-1.21-29.22,7.35-5.19,7.57,2,20.18-4.92,26.21-2.68,2.52-6.01-2.36-6.46-6.01-.68-5.7-1.36-11.39-2.04-17.1-2.95-.86-5.9,1.96-6.52,4.97-.63,3.01.34,6.09.98,9.09,1.18,5.43,1.33,11.06.47,16.55-.64,4.03-3.57,8.99-7.44,7.7-2.57-.86-3.45-4.03-3.65-6.73-.49-6.66.79-13.48-.87-19.94-1.66-6.47-7.98-12.58-14.37-10.67-3.07.92-5.41,3.47-8.42,4.6-6.1,2.28-12.54-1.8-18.95-3.01-3.86-.73-7.84-.38-11.74-.04-11.46,1.02-22.91,2.03-34.37,3.05.59,8.52-.64,17.16-3.6,25.17-1.41,3.84-4.28,8.18-8.33,7.67-2.85-.35-4.81-3.04-5.92-5.69-2.9-6.87-2.53-14.61-3.77-21.96-1.24-7.35-5.05-15.25-12.21-17.29-2.86-.81-5.94-.58-8.76-1.52-5.71-1.91-10.9-8.46-16.32-5.86-4.63,2.23-4.16,8.76-4.07,13.89.08,5.13-3.64,11.87-8.33,9.79-7.84-8.61-4-22.28-6.58-33.64-.41-1.81-1.07-3.7-2.55-4.83-1.02-.78-2.3-1.09-3.51-1.55-.53-.19-1.05-.42-1.53-.73-5.11-3.21.47-16.93.5-17,.45-1.08.83-2.09,1.07-2.98.17-.64,1.39-1.17,1.58-1.84.04-.12.07-.24.11-.36.35-.61.75-1.2,1.19-1.8,7.64-11.2,30-22.61,68.13-29.26,18.3-3.52,38.74-5.62,59.56-5.62,72.52-2.13,119.89,13.33,134.07,28.88,3.39,2.02,4.09,4.67,4.41,5.15,5.25,7.96,4.86,15.25.8,21.01Z"/>
          <path class="cls-16" d="M63.58,120.46c-7.39,3.7,8.71,19.17,31.37,24.4,22.65,5.23,47.05,10.46,49.66,4.36,2.61-6.1-38.34-12.2-47.05-14.81-8.71-2.61-30.5-15.68-33.98-13.94Z"/>
          <path class="cls-16" d="M156.32,145.34c-.58,5.23,17.43,6.58,32.92,5.03,15.49-1.55,31.75-5.03,27.49-7.36-1.89-1.03-15.45.54-28.27.77-16.1.3-31.93-.39-32.14,1.55Z"/>
        </g>
        <g>
          <path class="cls-6" d="M25.08,246.88s5.75,47.46,9.59,53.22c3.84,5.75,15.79,11.03,30.68,11.03,17.26,0,25.89-7.67,28.29-11.03,2.4-3.36,11.03-55.14,11.03-55.14l-79.59,1.92Z"/>
          <path class="cls-14" d="M36.58,298.81s-6.47-39.85-5.03-41.47c1.44-1.62,3.84-2.78,5.03.23,1.2,3.01,5.03,43.09,5.03,43.09l-5.03-1.85Z"/>
          <path class="cls-14" d="M47.97,305.1s-3.6-45.64-2.64-47.03c.96-1.39,5.51-2.32,6.23.46s1.68,45.64,1.68,45.64l-5.27.93Z"/>
          <path class="cls-14" d="M91.62,298.81s6.47-39.85,5.03-41.47c-1.44-1.62-3.84-2.78-5.03.23-1.2,3.01-5.03,43.09-5.03,43.09l5.03-1.85Z"/>
          <path class="cls-14" d="M80.24,305.1s3.6-45.64,2.64-47.03c-.96-1.39-5.51-2.32-6.23.46-.72,2.78-1.68,45.64-1.68,45.64l5.27.93Z"/>
          <path class="cls-14" d="M61.99,306.57s-.24-46.1.48-47.26c.72-1.16,5.51-.7,6.47.7.96,1.39-1.2,45.64-1.2,45.64l-5.75.93Z"/>
          <path class="cls-15" d="M113.78,245.44c-3.6,5.03-7.2,4.31-13.67,4.31s-11.5,5.76-18.7,7.92c-7.19,2.15-12.94,0-20.13-2.88-7.2-2.87-25.89-.71-31.64,0-5.05.63-12.87-3.17-14.71-8.48-.25-.74-.39-1.51-.39-2.3,0-6.48,5.03-10.07,5.03-10.07,0,0-2.88-5.76.72-9.35l3.59-3.59s4.31-.72,16.54-6.48c12.23-5.76,13.66-10.07,28.77-9.35.34.02.67.03,1,.07,14.46,1.01,22.11,8.64,26.33,12.16,4.31,3.6,12.94,5.76,14.38,12.23,1.44,6.47,6.48,10.78,2.88,15.82Z"/>
          <path class="cls-1" d="M113.78,245.44c-3.6,5.03-7.2,4.31-13.67,4.31s-11.5,5.76-18.7,7.92c-7.19,2.15-12.94,0-20.13-2.88-7.2-2.87-25.89-.71-31.64,0-5.05.63-12.87-3.17-14.71-8.48.95.71,2.03,1.42,3.21,2.05,5.17,2.75,15.51-3.8,23.09-3.8s19.3,4.83,26.2,6.89c6.89,2.07,12.75-4.13,19.3-7.92,6.55-3.79,12.75-.69,17.93-.69s2.75-9.65.34-14.13c-2.42-4.49-7.59-6.21-12.41-8.28-4.83-2.07-8.96-4.82-12.75-10.34-1.92-2.79-6.04-4.18-9.65-4.85,14.46,1.01,22.11,8.64,26.33,12.16,4.31,3.6,12.94,5.76,14.38,12.23,1.44,6.47,6.48,10.78,2.88,15.82Z"/>
          <path class="cls-11" d="M73.5,215.24c-4.61,4.61,5.27,2.88,7.19,4.79,1.92,1.92,5.03-1.44,3.6-2.88-1.44-1.44-9.11-3.6-10.79-1.92Z"/>
          <path class="cls-11" d="M28.64,225.04c-6.1,2.32,3.63,4.79,4.59,7.32.96,2.54,5.18.75,4.46-1.15-.72-1.9-6.84-7.01-9.05-6.17Z"/>
          <path class="cls-11" d="M80.69,229.86c-2.21,1.1,1.92,9.35,3.12,7.43,1.2-1.92,1.92-5.99.24-7.19-1.68-1.2-.48-1.68-3.36-.24Z"/>
          <path class="cls-11" d="M38.26,227.22c-.34,1.7,1.44,4.08,3.36,3.12,1.92-.96,6.71-6.23,6.71-6.23-1.44-1.68-9.83,1.92-10.07,3.12Z"/>
          <path class="cls-11" d="M75.78,235.37c2.58,1.55-1.2,6.23-3.84,5.51s-3.84-2.64-5.27-2.88-2.4-1.68.96-2.4c3.36-.72,6.95-.96,8.15-.24Z"/>
          <path class="cls-11" d="M72.3,242.56c-2.59,0,.96,2.64,3.6,3.12,2.64.48,7.19-1.44,4.08-2.64-3.12-1.2-6.71-.48-7.67-.48Z"/>
          <path class="cls-11" d="M46.97,245.15c-2.59,0,.96,2.64,3.6,3.12,2.64.48,7.19-1.44,4.08-2.64-3.12-1.2-6.71-.48-7.67-.48Z"/>
          <path class="cls-11" d="M63.91,227.94c-2.06,1.18,0,1.2,2.88,1.92,2.88.72,5.99-1.44,4.32-2.4-1.68-.96-5.51-.48-7.19.48Z"/>
          <path class="cls-11" d="M27.71,238.01c-2.19.88,1.2,4.79,2.88,5.27,1.68.48,8.87.24,7.43-1.44-1.44-1.68-6.23-1.92-7.19-2.64s-1.92-1.68-3.12-1.2Z"/>
          <path class="cls-11" d="M97.23,228.9c-3.14-.7,1.92,7.67,3.12,6.23,1.2-1.44-.96-5.75-3.12-6.23Z"/>
          <path class="cls-11" d="M62.23,238.25c2.87-.57.48,7.19-1.92,5.51-2.4-1.68.72-5.27,1.92-5.51Z"/>
          <path class="cls-11" d="M54.32,211.16c-.46,1.54,7.43,0,7.91-.96l.48-.96s-7.67-.48-8.39,1.92Z"/>
        </g>
        <g>
          <path class="cls-10" d="M168.76,324.11c15.51,7.72,61.53,1.55,105.93-3.09,44.41-4.63,122.52-29.34,124.66-39.38.66-3.09.44-6.29-.48-9.33-2.08-6.85-7.73-12.94-15.04-15.37-6.46-2.15-12.94-3.56-19.58-4.38h0c-3.39-.42-6.82-.68-10.31-.81-9.57-.36-19.62.26-30.55,1.44h0c-2.81.31-5.68.65-8.62,1.01h0c-8.09,1.02-16.68,2.26-25.9,3.58t0,0c-3.17.45-6.41.91-9.73,1.37-7.78,1.08-16.01,2.17-24.76,3.2-.76.09-1.51.18-2.27.27-3.81.47-7.54,1.01-11.18,1.6h0c-7.01,1.13-13.69,2.46-20.01,3.93h0c-4.5,1.05-8.81,2.17-12.94,3.34-4.83,1.38-9.39,2.82-13.68,4.32-3.3,1.14-6.42,2.32-9.38,3.5-7.48,3-13.85,6.07-19,8.99-8.17,4.64-13.26,8.89-14.81,11.87-4.82,9.27,2.14,16.22,17.66,23.94Z"/>
          <path class="cls-13" d="M168.76,324.11c15.51,7.72,61.53,1.55,105.93-3.09,44.41-4.63,122.52-29.34,124.66-39.38.66-3.09.44-6.29-.48-9.33-3.66,6.88-13.02,9.58-19.94,11.32-23.35,5.86-46.7,11.72-70.05,17.58-7.37,1.85-40.46,5.73-49.58,6.46-29.1,2.3-58.4,13.25-87.02,5.32-5.06-1.4-11.02-4.89-11.64-12.28-.45-5.29,2.02-9.38,5.27-12.41-8.17,4.64-13.26,8.89-14.81,11.87-4.82,9.27,2.14,16.22,17.66,23.94Z"/>
          <path class="cls-12" d="M364.25,252.56c-3.39-.42-6.82-.68-10.31-.81,10.28,7.01,16.82,17.86,19.47,19.99,3.61,2.9,5.62-4.05,2.41-9.27-1.6-2.6-6.76-6.57-11.56-9.91h0Z"/>
          <path class="cls-12" d="M323.38,253.19c-2.81.31-5.68.65-8.62,1.01,10.01,7.07,18.17,20.07,20.11,23.33,2.41,4.05,8.02,1.16,2.41-9.27-3.53-6.55-9.76-11.96-13.9-15.07h0Z"/>
          <path class="cls-12" d="M288.85,257.78c-3.17.45-6.41.91-9.73,1.37,9.75,7.24,16.86,21.3,19.64,25.33,3.61,5.21,11.24-1.16,3.61-12.16-4.64-6.69-10.02-11.67-13.52-14.54t0,0Z"/>
          <path class="cls-12" d="M252.09,262.62c-3.81.47-7.54,1.01-11.18,1.6,11.74,4.87,18.51,22.31,21.74,24.9,3.61,2.9,6.02.58,2.01-9.85-2.85-7.42-9.17-13.66-12.57-16.65Z"/>
          <path class="cls-12" d="M207.96,271.49c11.42,2.81,24.43,22.21,27,21.68,2.81-.58,2.41-6.37-2.01-12.74-3.16-4.56-9-9.72-12.05-12.28h0c-4.5,1.05-8.81,2.17-12.94,3.34Z"/>
          <path class="cls-12" d="M184.9,279.31c3.68,2.39,9.16,6.09,11.94,8.64,4.41,4.05,10.43,12.74,12.44,8.11,1.62-3.73-10.3-15.72-15-20.25-3.3,1.14-6.42,2.32-9.38,3.5Z"/>
        </g>
      </g>
    </g>
  </g>
</svg>