<?xml version="1.0" encoding="UTF-8"?>
<svg id="angry_people_set" data-name="angry people set" xmlns="http://www.w3.org/2000/svg" viewBox="0 0 400 400">
  <defs>
    <style>
      .cls-1 {
        fill: #6fc3d1;
      }

      .cls-2 {
        fill: #ffbc8f;
      }

      .cls-3 {
        fill: #c48e39;
      }

      .cls-4 {
        fill: #b7aea5;
      }

      .cls-5 {
        fill: #d19c78;
      }

      .cls-6 {
        fill: #efb441;
      }

      .cls-7 {
        fill: #fcefe0;
      }

      .cls-8 {
        fill: #c7cec2;
      }

      .cls-9 {
        fill: #aaafa7;
      }

      .cls-10 {
        fill: #f3ffed;
      }

      .cls-11 {
        fill: #539299;
      }
    </style>
  </defs>
  <g>
    <path class="cls-10" d="M211.08,22.78c.81-2.43-1.62-17.81,1.62-21.05,3.24-3.24,92.07,10.52,94.5,12.95,2.43,2.43,5.67,27.53,3.24,27.53s-99.36-19.43-99.36-19.43Z"/>
    <path class="cls-9" d="M274.23,83.5s31.12-40.48,36.21-41.29c5.08-.81,40.71,15.38,39.09,21.05-1.62,5.67-80.24,29.15-75.29,20.24Z"/>
    <path class="cls-8" d="M211.08,22.78s-35.62,26.72-36.43,29.15c-.81,2.43,99.58,34,99.58,34l36.21-43.72-99.36-19.43Z"/>
    <path class="cls-8" d="M351.14,321.53c-1.62,5.67-76.87,33.19-76.87,33.19,1.11-.74,1.2-57.12.97-118.05-.08-19.07-.19-38.59-.3-56.99v-.32c-.32-51.08-.71-93.42-.71-93.42l75.29-22.67s1.03,80.5,1.64,151.63c.47,54.87.68,104.17-.02,106.64Z"/>
    <path class="cls-10" d="M274.94,179.36v.32c-.02,18.28-.07,37.67-.13,56.63-.21,61.47-.54,118.41-.54,118.41,0,0-96.39-43.4-97.2-47.45-.36-1.81-.88-57.83-1.35-112.6-.58-67.74-1.08-142.74-1.08-142.74,0,0,97.96,30.77,99.59,34,.63,1.27.78,43.11.71,93.42Z"/>
    <path class="cls-1" d="M274.27,354.72s-96.39-43.4-97.2-47.45c-.36-1.81-.88-57.83-1.35-112.6,3.55-4.96,7.19-8.35,10.26-8.35,9.71,0,4.04,27.53.8,36.43-3.24,8.91,15.38,17.82,13.77,1.62-1.62-16.19-3.96-32.39.9-36.43,4.86-4.05,20.15,19.42,17.72,57.48-1.16,18.23-6.48,40.48,5.67,42.91,12.14,2.43,4.05-34,2.43-43.72-1.62-9.72,4.86-30.77,9.72-29.95,4.85.81,6.48,9.72,5.67,21.05-.81,11.33-4.05,22.67,4.86,23.48,8.9.81,5.67-14.57,4.85-25.9-.81-11.33,2.43-18.62,9.72-15.38,7.16,3.19,8.07,14.2,12.72,18.41.08.08.15.15.23.21.07.05.13.1.2.15.23,60.93.15,117.31-.97,118.05Z"/>
    <path class="cls-11" d="M351.14,321.53c-1.62,5.67-76.87,33.19-76.87,33.19,1.11-.74,1.2-57.12.97-118.05,4.9,3.65,13.61-5.72,17.61,1.47,4.05,7.29,2.43,28.34-.81,41.29-3.24,12.96,12.14,20.24,14.57,8.9,2.44-11.33-4.85-36.43-3.24-45.34,1.62-8.9,10.53-19.43,15.38-10.53,4.86,8.9-4.04,56.68-2.43,64.77,1.62,8.09,10.53,12.14,14.57,2.43,4.05-9.72-9.71-75.29-5.67-85.82,4.05-10.52,14.58-2.43,12.14,13.77-2.43,16.19-8.9,32.38.81,31.57,9.72-.8,8.9-19.43,5.67-32.38-2.2-8.81,3.46-11.25,7.31-11.91.47,54.87.68,104.17-.02,106.64Z"/>
    <path class="cls-1" d="M188.41,98.89c-3.24,0-.81,39.67,1.62,41.29s70.44,30.77,70.44,30.77c0,0,1.62-40.48,0-43.72-1.62-3.24-72.05-28.34-72.05-28.34Z"/>
    <path class="cls-11" d="M245.86,43.52c-2.83-.6-6.05-.94-9.45-.94s-6.62.34-9.45.94h-11.19v7.56c0,4.7,9.24,8.5,20.64,8.5s20.64-3.81,20.64-8.5v-7.56h-11.19Z"/>
    <path class="cls-1" d="M257.05,43.52c0,4.7-9.24,8.5-20.64,8.5s-20.64-3.81-20.64-8.5,9.24-8.5,20.64-8.5,20.64,3.81,20.64,8.5Z"/>
  </g>
  <g>
    <g>
      <path class="cls-1" d="M206.17,202.07s-6.88,133.24-12.19,141.1c-5.11,7.54-43.38,23.51-51.34,26.74-.25.12-.45.19-.63.27-6.26,2.54-77.97-20.54-80.64-25.74-.66-1.28-1.82-10.56-3.19-23.77-2.15-20.77-4.8-51.3-6.88-75.98-1.95-23.14-3.38-41.16-3.38-41.16l99.85-.92,58.39-.55Z"/>
      <path class="cls-11" d="M206.17,202.07s-6.88,133.24-12.19,141.1c-5.11,7.54-43.38,23.51-51.34,26.74.26-4.72.58-12.29.92-21.65.82-22.6,1.79-55.71,2.6-84.71.84-30.7,1.5-56.78,1.62-60.93l58.39-.55Z"/>
    </g>
    <path class="cls-10" d="M146.16,263.56c-.81,29-1.77,62.1-2.6,84.71l-85.39-27.58c-2.15-20.77-4.96-56.59-7.04-81.27,21.88,4.85,85.33,23.96,95.02,24.15Z"/>
    <path class="cls-8" d="M193.58,258.12l-4.64,63.92c-.13,1.88-1.23,3.53-2.9,4.4l-42.41,21.84h-.06c.82-22.62,1.79-55.73,2.6-84.72h.19c7.78,0,28.68-6.91,40.1-10.91,3.65-1.28,7.41,1.62,7.13,5.47Z"/>
    <path class="cls-5" d="M22.89,208.89c-7.66,7.84,119.28,29.15,129.96,27.33,10.68-1.82,85.45-25.51,83.67-32.8-.27-1.11,3.8-6.83-.42-8.2-23.63-7.63-105.39-13.67-115.96-13.67-11.27,0-82.53,15.77-96.93,21.11-1.52.56-.14,6.05-.31,6.23Z"/>
    <path class="cls-2" d="M22.89,202.05c-7.66,7.84,119.28,29.15,129.96,27.33,10.68-1.82,85.45-25.51,83.67-32.8-1.78-7.29-103.92-21.87-116.38-21.87s-95.46,25.51-97.24,27.33Z"/>
  </g>
  <g>
    <path class="cls-3" d="M208.08,396.95c3.87,9.25,155-19.83,161.09-23.47,6.09-3.63,14.69-41.81,1.14-70.06-13.56-28.25-42.12-48.39-50.73-49.01-5.76-.42-10.37,7.28-18.31,16.99-30.84,37.69-93.19,125.55-93.19,125.55Z"/>
    <path class="cls-6" d="M278.41,245.39c9.86-3.69,41.16,9.02,41.16,9.02l-111.49,142.53-3.28-3.71-18.8-21.37-3.02-3.43s88.82-120.56,95.43-123.04Z"/>
    <path class="cls-7" d="M306.36,256.25c-.91,2.2-10.8,15.79-22.61,31.65-6.07,8.16-12.64,16.93-18.74,25.05h-.01c-5.58,7.44-10.79,14.36-14.86,19.79-14.21,18.99-37.72,50.32-45.34,60.49l-18.8-21.37c3.13-4.2,27.41-36.81,50.19-67.16-.01,0,0-.01,0-.01,2.53-3.38,5.05-6.74,7.53-10.03,17.62-23.46,32.68-43.29,33.71-44,2.51-1.78,24.23,2.33,28.93,5.58Z"/>
    <path class="cls-4" d="M231.29,334.71c11.52-8.38,9.89,13.96,6.17,16.29-3.72,2.33-10.71,8.84-12.57-1.4-1.86-10.24,6.4-14.9,6.4-14.9Z"/>
    <path class="cls-4" d="M283.75,287.9c-6.07,8.16-12.64,16.93-18.74,25.05-.01.01-.01,0-.01,0-1.61-1.09-2.92-3.39-3.67-7.51-2.76-15.26,9.54-22.19,9.54-22.19,7.96-5.78,11.7-1.72,12.88,4.64Z"/>
    <path class="cls-4" d="M213.91,351.88c10.43-4.97,8.96,8.29,5.59,9.67-3.37,1.38-9.7,5.25-11.38-.83-1.69-6.08,5.8-8.84,5.8-8.84Z"/>
    <path class="cls-4" d="M282.09,273.38c1.22-6.16,7.6-2.75,7.1-.83-.49,1.92-.86,5.93-4.06,4.69-3.19-1.24-3.05-3.86-3.05-3.86Z"/>
    <path class="cls-4" d="M233.91,316.32c1.22-6.16,7.6-2.75,7.1-.83-.49,1.92-.86,5.93-4.06,4.69-3.19-1.24-3.05-3.86-3.05-3.86Z"/>
    <path class="cls-4" d="M244.3,309.88c-2.32,1.55-6.22-1.39-8.11-5.17-.01,0,0-.01,0-.01,2.53-3.38,5.05-6.74,7.53-10.03,4.51,2.28,4.3,12.75.59,15.21Z"/>
  </g>
</svg>