<?xml version="1.0" encoding="UTF-8"?>
<svg id="angry_people_set" data-name="angry people set" xmlns="http://www.w3.org/2000/svg" viewBox="0 0 400 400">
  <defs>
    <style>
      .cls-1 {
        fill: #6fc3d1;
      }

      .cls-2 {
        fill: #ffbc8f;
      }

      .cls-3 {
        fill: #b77849;
      }

      .cls-4 {
        fill: #7db7b6;
      }

      .cls-5 {
        fill: #7c5032;
      }

      .cls-6 {
        fill: #fcefe0;
      }

      .cls-7 {
        fill: #a05635;
      }

      .cls-8 {
        fill: #464655;
      }

      .cls-9 {
        fill: #e2d6cc;
      }

      .cls-10 {
        fill: #d4e7e8;
      }

      .cls-11 {
        fill: #b0d4d6;
      }

      .cls-12 {
        fill: #5ca3aa;
      }

      .cls-13 {
        fill: #ee4036;
      }
    </style>
  </defs>
  <g>
    <g>
      <path class="cls-6" d="M54.71,271.7c6.94,2.97,15.47.15,19.33-6.29l53.75,22.98,10.27-18.81-53.75-22.98c3.3-6.68.51-14.34-6.44-17.31-7.12-3.05-15.91,0-19.62,6.8-1.91,3.5-2.1,7.31-.87,10.6-3.68,1.19-6.93,3.69-8.84,7.19-3.71,6.8-.95,14.78,6.17,17.82h0Z"/>
      <path class="cls-3" d="M127.09,306.24c4.76,19.15,21.42,37.74,39.55,45.49,27.36,11.7,61.11,0,75.38-26.11,14.27-26.12,3.65-56.77-23.71-68.47-17.9-7.65-44.28-7.76-64.1.52-7.89,3.29-16.73,3.35-24.25.14l-4.28-1.83c-1.19-.51-2.06-1.45-2.47-2.6-.41-1.16-1.18-2.58-2.58-3.17-2.55-1.09-5.7,0-7.02,2.43l-16.02,29.33c-1.33,2.43-.34,5.29,2.21,6.38,1.38.59,3.22.02,4.62-.63,1.42-.66,3.05-.73,4.42-.14l3.21,1.37c7.66,3.27,13.14,9.61,15.05,17.3h0Z"/>
      <path class="cls-9" d="M54.71,271.7c5.31,2.27,11.55,1.15,15.91-2.38-1.91-.03-3.83-.4-5.64-1.18-7.12-3.05-9.89-11.02-6.17-17.82,1.91-3.5,5.17-6,8.84-7.19-1.23-3.29-1.04-7.1.87-10.6.94-1.73,2.22-3.21,3.7-4.42-5.62-.08-11.21,2.9-13.98,7.97-1.91,3.5-2.1,7.31-.87,10.6-3.68,1.19-6.93,3.69-8.84,7.19-3.71,6.8-.95,14.78,6.17,17.82Z"/>
      <path class="cls-5" d="M97.57,281.95c-1.33,2.43-.34,5.29,2.21,6.38,1.38.59,3.22.02,4.62-.63,1.42-.66,3.05-.73,4.42-.14l3.21,1.37c7.66,3.27,13.14,9.61,15.05,17.3,4.76,19.15,21.42,37.74,39.55,45.49,15.4,6.58,32.83,5.76,47.66-.88-12.24,3.08-25.42,2.43-37.38-2.68-18.13-7.75-34.79-26.34-39.55-45.49-1.91-7.69-7.39-14.03-15.05-17.3l-3.21-1.37c-.74-.32-3.95-1.92-6.75-3.33-2.54-1.28-3.45-4.22-2.08-6.73l12.12-22.19c-.43-.65-1.01-1.23-1.78-1.56-2.55-1.09-5.7,0-7.02,2.43l-16.02,29.33h0Z"/>
    </g>
    <g>
      <ellipse class="cls-5" cx="198.81" cy="333.01" rx="2.72" ry="2.47" transform="translate(-98.04 83.4) rotate(-19.1)"/>
      <ellipse class="cls-5" cx="204.27" cy="320.03" rx="2.72" ry="2.47" transform="translate(-93.49 84.48) rotate(-19.1)"/>
      <ellipse class="cls-5" cx="215.41" cy="327.26" rx="2.72" ry="2.47" transform="translate(-95.24 88.52) rotate(-19.1)"/>
    </g>
  </g>
  <g>
    <g>
      <path class="cls-4" d="M294.94,149.94l12.91,6.99-26.13,32.76s-23.11-9.48-38.67-27.9l51.89-11.85Z"/>
      <path class="cls-4" d="M195.41,172.73c2.75,23.59,26.47,28.84,26.47,28.84,0,0,11.38-22.2-13.66-29.61l-12.81.76Z"/>
    </g>
    <g>
      <path class="cls-12" d="M269.67,96.9s4.61-9.28,12.86-12.53c9.23-3.64,19.08.53,19.08.53l-6.42,12.71-25.52-.71Z"/>
      <path class="cls-12" d="M212.56,82.43l19.37-13.87c-25.07-11.83-37.35-24.82-37.35-24.82-20.58,13.97-39.08,32.3-39.08,32.3l57.06,6.39Z"/>
    </g>
    <path class="cls-10" d="M124.09,67.17c21.4.59,132.31,8.46,177.48,30.61,45.62,22.37,43.68-24.49,95.2-23.06,0,0-12.14,32.64-11.83,51.38s13.87,53.38,13.87,53.38c-52.81-1.46-52.5-51.52-97.4-29.36-59.74,29.48-114.9,23.48-175.56,21.8-60.66-1.68-112.9-30.34-127.03-43.38l25.76.71s-8.16-21.51-23.82-26.83c21.53-9.94,101.95-35.84,123.35-35.25Z"/>
    <g>
      <path class="cls-11" d="M-1.19,128.53c9.43,8.71,35.83,24.31,70.42,34.27,10.15-13.97,21.76-41.35-8.2-81.53-24.97,7.54-49.73,16.26-60.28,21.14,15.66,5.32,23.82,26.83,23.82,26.83l-25.76-.71Z"/>
      <path class="cls-11" d="M236.85,128.16c-62.68-8.58-133.5-18.29-159.01-6.34l-5.08-11.84c28.9-13.49,98.33-4,165.7,5.22,46.69,6.38,90.89,12.43,113.4,9.52l2.07,13.03c-6,.78-13.27.98-21.56.75-25.19-.7-59.64-5.42-95.52-10.34Z"/>
    </g>
    <path class="cls-4" d="M74.97,150.48s33.88,7.59,38.5,7.72c6.48.18,43.66-18.69,20.28-19.34-12.9-.36-45.14-1.25-45.14-1.25l-13.64,12.87Z"/>
    <path class="cls-1" d="M.74,102.41c19.2.53,30.26,27.01,56.81,14.62,3.38-1.58,6.62-3.08,9.79-4.51,6.32,9.22,8.27,16.81,8.69,18.88-1.09,14.03-10.74,23.03-18.49,27.73,4.92,1.68,10,3.28,15.31,4.72,8.29-7.58,15.34-18.52,16.1-32.82.02-.43,0-.87-.06-1.29-.11-.76-1.69-10.34-9.37-22.4,17.15-6.89,33.29-10.93,55.99-10.31,127.72,3.54,169.27,42.69,249.53,31.2-.04-.71-.11-1.45-.12-2.13-.31-18.74,11.83-51.38,11.83-51.38-51.52-1.43-49.58,45.43-95.2,23.06-45.17-22.15-156.07-30.02-177.48-30.61-21.4-.59-101.82,25.3-123.35,35.24Z"/>
    <path class="cls-8" d="M45.13,110.16c-.23,3.6-3.29,6.44-6.83,6.34-3.55-.1-6.22-3.1-5.98-6.7.24-3.59,3.3-6.42,6.83-6.32,3.53.1,6.21,3.09,5.99,6.68Z"/>
    <path class="cls-12" d="M398.81,179.48s-13.56-34.48-13.87-53.38,11.83-51.38,11.83-51.38c-35.81-.99-45.78,21.19-63.88,27.45,5.66,4.22,13.45,11.98,13.53,22.87.08,10.54-7.1,17.82-12.71,21.9,17.75,7.84,29.1,31.54,65.09,32.54Z"/>
  </g>
  <g>
    <path class="cls-7" d="M332.67,138.62l-121.08,4.36c-24.24.87-47.95,15.48-53.48,33.51l-7.1,23.14c-6.26,20.43,10.54,37.59,38.21,37.21l4.33-.06c13.45-.19,25.58,3.95,33.82,11.65l35.12,32.79c9.42,8.8,23.34,13.85,38.56,13.85h24.28c43.33,0,77.55-28.62,75.79-61.17l-2.83-52.31c-1.39-25.77-30.96-44.22-65.63-42.97Z"/>
    <path class="cls-2" d="M158.11,176.49l-1.73,5.64c-5.94,19.39,10.58,35.55,37.53,35.05l4.22-.08c13.09-.24,24.93,3.6,32.99,10.83l34.29,30.74c9.18,8.23,22.71,12.91,37.48,12.83l23.56-.13c42.02-.23,75.23-27.34,73.57-58.02l-1.72-31.77c-1.39-25.77-30.96-44.22-65.63-42.97l-121.08,4.36c-24.24.87-47.95,15.48-53.48,33.51h0Z"/>
    <g>
      <path class="cls-13" d="M347.48,144.78c-4.79-.76-9.84-1.08-15.06-.9l-70.17,2.44c-3.38.12-5.54,3.01-3.41,4.6l26.3,19.59c3.73,2.78,9.54,3.73,15.23,2.51,2.03-.44,4.15-.7,6.31-.76,2.17-.06,4.26.08,6.24.4,5.56.91,11.65-.39,15.93-3.42l21.95-15.53c4.39-3.11,2.5-8.02-3.32-8.94h0Z"/>
      <path class="cls-13" d="M367.58,241.84l-40.74-30.87c-4.18-3.17-10.42-4.41-16.4-3.09-2.7.6-5.54.88-8.45.8-12.66-.35-21.99-7.76-21.67-16.92.07-2.06.6-4.05,1.52-5.92,2.01-4.12.78-8.37-2.92-11.18l-30.69-23.25c-3.73-2.82-9.16-4.28-15.14-4.07l-22.74.79c-20.38.71-40.22,13.03-44.68,28.15l-1.67,5.65c-4.76,16.1,9.12,29.38,31.41,28.93l4.18-.08c15.26-.31,28.83,4.03,38.34,12.39l34.46,30.32c7.73,6.8,18.79,10.56,31.08,10.47l23.33-.17c14.95-.11,28.87-4.25,39.94-11.06,4.46-2.74,4.83-7.88.84-10.9h0Z"/>
      <path class="cls-13" d="M372.3,154.03c-3.17-2.09-8.35-1.92-11.52.35l-26.33,18.79c-4.3,3.07-6.13,7.46-4.79,11.55.48,1.47.7,3.04.62,4.67s-.45,3.24-1.08,4.77c-1.78,4.33-.34,8.94,3.87,12.08l38.56,28.73c4.67,3.48,12.43,2.19,14.89-2.43,3.17-5.96,4.77-12.4,4.5-19l-1.31-31.71c-.47-11.29-7.16-21.03-17.41-27.79Z"/>
    </g>
    <path class="cls-13" d="M306.2,178.07c9.04-.25,16.09,4.86,15.69,11.51-.4,6.79-8.36,12.56-17.73,12.76-9.33.2-16.26-5.2-15.53-11.95.71-6.61,8.56-12.08,17.56-12.32Z"/>
  </g>
</svg>