<?xml version="1.0" encoding="UTF-8"?>
<svg id="angry_people_set" data-name="angry people set" xmlns="http://www.w3.org/2000/svg" viewBox="0 0 400 400">
  <defs>
    <style>
      .cls-1 {
        fill: #cc7e19;
      }

      .cls-2 {
        fill: #db9a6e;
      }

      .cls-3 {
        fill: #b22b2b;
      }

      .cls-4 {
        fill: #d33531;
      }

      .cls-5 {
        fill: #7a5230;
      }

      .cls-6 {
        fill: #9e6e4d;
      }

      .cls-7 {
        fill: #a05635;
      }

      .cls-8 {
        fill: #6ead4d;
      }

      .cls-9 {
        fill: #f9a11d;
      }

      .cls-10 {
        fill: #b2785f;
      }

      .cls-11 {
        fill: #7a402a;
      }
    </style>
  </defs>
  <g>
    <g>
      <path class="cls-7" d="M355.84,299.39c0,3.14-2.74,9.14-3.65,10.71-.91,1.56-3.88.78-6.84-.26-1.72-.61-4.06-2.54-5.81-4.4-1.26-1.35-2.22-2.67-2.41-3.43-.46-1.83.92-9.4.46-12.79-.46-3.39-6.18-10.94-4.79-12.53,1.6-1.82,6.39,6.01,7.99,8.36,1.6,2.35,7.3,2.61,10.5,4.7,1.87,1.22,3.12,3.25,3.83,5.36.5,1.48.74,3.01.74,4.3Z"/>
      <path class="cls-11" d="M355.84,299.39c0,3.14-2.74,9.14-3.65,10.71-.91,1.56-3.88.78-6.84-.26-1.72-.61-4.06-2.54-5.81-4.4-.04-.56-.11-1.13-.23-1.7-.29-1.4-.29-3.13.72-3.99,1.6-1.38,4.6.4,5.6-1.59.28-.56.27-1.25.24-1.9-.03-.85-.07-1.7-.1-2.55-.01-.3-.01-.63.17-.84.29-.33.79-.11,1.14.15.61.47,1.18,1,1.69,1.6.44.52.86,1.1,1.44,1.38,1.55.75,3.25-.95,4.9-.88.5,1.48.74,3.01.74,4.3Z"/>
    </g>
    <g>
      <path class="cls-7" d="M338.72,267.94c-5.02,2.82-15.09,6.34-15.74,7.83-1.03,2.35,0,5.87-1.54,7.64-.63.72-2.99.75-5.73.38-3.95-.55-8.67-1.93-10.18-3.32-2.57-2.35,1.54-11.16,3.08-12.34.63-.48,2.76-2.07,5.18-3.27,3.44-1.7,7.48-2.62,8.68,1.51.83,2.84,15.4-2.54,17.97-1.96.94.22,1.2,1.88-1.71,3.53Z"/>
      <path class="cls-11" d="M317.31,273.17c-.34.7-1.17.82-1.71,1.31-.94.85-.8,2.55-.34,3.82.46,1.27,1.16,2.54,1.02,3.9-.05.59-.27,1.13-.58,1.59-3.95-.55-8.67-1.93-10.18-3.32-2.57-2.35,1.54-11.16,3.08-12.34.63-.48,2.76-2.07,5.18-3.27.26.28.48.67.65,1.18.53,1.57.19,3.33-.15,4.97.74-.12,1.52-.25,2.21.09.69.33,1.19,1.32.82,2.07Z"/>
    </g>
    <g>
      <path class="cls-7" d="M382.99,274.42c-.16.75-.64,1.35-1.14,1.87-1.75,1.86-3.86,3.25-6.14,4.09-1.57.58-3.2.89-4.85.9-1.34,0-2.77-.22-3.75-1.25-.73-.76-1.11-1.87-1.77-2.71-1.53-1.95-4.12-2.05-6.42-2.02-3.41.06-6.83.11-10.24.17-3.03.05-4.67-1.4-1.76-3.37,2.48-1.69,8.47-1.08,11.36-1.65,1.64-.32,3.31-.7,4.76-1.62,1.46-.91,2.7-2.45,2.99-4.33.12-.8.1-1.72.62-2.27.29-.31.7-.43,1.09-.52,1.33-.3,2.69-.32,4.02-.1,5.1.83,9.8,5.2,11.11,10.96.14.61.24,1.25.11,1.86Z"/>
      <path class="cls-11" d="M382.99,274.42c-.16.75-.64,1.35-1.14,1.87-1.75,1.86-3.86,3.25-6.14,4.09-.56-.33-1.09-.77-1.54-1.3-.62-.72-1.13-1.6-1.92-2.06-.32-.19-.69-.31-.91-.64-.36-.56,0-1.42.55-1.72.55-.3,1.2-.22,1.8-.12,1.18-1.65,2.07-3.72,1.91-5.85-.24-3.33-3.53-3.26-3.92-5.65-.09-.52-.05-1,.07-1.43,5.1.83,9.8,5.2,11.11,10.96.14.61.24,1.25.11,1.86Z"/>
    </g>
    <g>
      <path class="cls-7" d="M399.04,295.69c-1.96,2.98-5.11,4.86-8.34,5.08-.46.03-.91.03-1.37,0-5.7-.45-7.78-5.75-12.3-8.29-.98-.55-14.51-1.98-13.91-3.19.99-2,3.38-2.23,5.39-2.21,3.15.04,6.3.07,9.45.1.67,0,1.35.01,1.99-.24.83-.33,1.47-1.07,2.16-1.7,2.86-2.62,7.09-3.41,10.31-1.43.1.06.21.12.31.19,1.17.8,2.13,1.92,3.08,3.02,1,1.17,2.01,2.33,3.01,3.5.44.51.89,1.05,1.08,1.72.34,1.18-.21,2.45-.86,3.45Z"/>
      <path class="cls-11" d="M399.04,295.69c-1.96,2.98-5.11,4.86-8.34,5.08.12-1.75.42-3.61-.48-4.93-.88-1.31-2.51-1.48-3.94-1.69-1.04-.16-2.4-1.09-1.89-2.14.34-.7,1.2-.66,1.9-.69,1.57-.07,2.98-1.01,4.33-1.92.31-.21.65-.46.75-.86.24-.91-.88-1.6-.95-2.55-.06-.76.55-1.35,1.13-1.72.28-.18.56-.34.86-.48.1.06.21.12.31.19,1.17.8,2.13,1.92,3.08,3.02,1,1.17,2.01,2.33,3.01,3.5.44.51.89,1.05,1.08,1.72.34,1.18-.21,2.45-.86,3.45Z"/>
    </g>
  </g>
  <g>
    <path class="cls-8" d="M172.27,221.5l3.34-2.37c-1.19-1.83-29.39-44.91-49.71-59.4-9.26-6.6-20.3-11.33-30.97-15.9-13.02-5.58-25.32-10.84-33.38-18.93-14.58-14.62-22.29-39.67-22.37-39.92l-3.85,1.27c.32,1.07,8.09,26.31,23.42,41.69,8.62,8.65,21.26,14.06,34.65,19.79,10.48,4.49,21.32,9.13,30.23,15.48,19.69,14.04,48.36,57.85,48.65,58.29Z"/>
    <path class="cls-8" d="M157.28,119.45c-8.11,1.01,1.42,32.57,1.88,43.65.46,11.08.19,21.52.92,23.99.73,2.47,4.47,8.91,4.47,8.91,0,0,10.47-9.19,11.12-26.84.65-17.65-11.88-31.36-13.86-37.81-1.99-6.45-4.53-11.9-4.53-11.9Z"/>
    <path class="cls-8" d="M98.54,191.77c3.12,1.24,13.63,2.19,29.09,3.48,6.33.53,12.31,1.03,15.1,1.42,7.48,1.06,18.63,9.15,18.74,9.24l2.42,1.76,2.63-11.17c1.35-5.74,2.53-35.94,2.58-37.23l-4.03-.17c-.33,8.62-1.43,31.96-2.47,36.39l-1.24,5.28c-3.94-2.6-11.86-7.39-18.07-8.28-2.9-.41-8.66-.89-15.33-1.45-10.28-.86-25.83-2.08-28.02-3.23l-1.71,3.82c.09.05.2.09.32.14Z"/>
    <path class="cls-8" d="M114.35,93.15c-5.17.02,2.04,19.25.83,26.25-1.21,7,16.76,40.38,16.76,40.38,0,0,6.06-5.3,3.75-15.94-2.31-10.64-11.65-26.74-13.44-34.04-1.78-7.31-6.15-16.65-7.9-16.64Z"/>
    <path class="cls-8" d="M65.5,68.3c-4.94.42,5.13,19.13,6.93,30.09,1.8,10.97-.02,20.55,7.43,27.94s16.86,13.91,17.47,11.33c.61-2.58-9.03-15.56-11.26-30.29-2.23-14.73-19.23-39.18-20.57-39.07Z"/>
    <path class="cls-8" d="M68.58,166.83c2.93,1.16,8.46,1.61,16.85,1.39l.21-.02c.18-.03,18.33-2.49,27.89-.48,9.85,2.07,20.96,4.91,21.07,4.94l3.98,1.02-1.65-3.91c-.03-.06-2.68-6.39-2.97-10.17-.33-4.25-6.21-28.17-6.88-30.88l-3.91,1.05c1.8,7.28,6.51,26.88,6.77,30.17.18,2.36,1.05,5.35,1.85,7.69-4.14-1.02-11.06-2.69-17.46-4.03-9.93-2.09-27.41.18-29.1.41-11.41.3-14.71-.81-15.61-1.3l-1.88,3.73c.25.14.53.27.84.39Z"/>
    <path class="cls-8" d="M59.32,147.3c3.44,1.36,6.64,2.3,9.25,2.49,9.75.7,36.88,3.56,37.16,3.59l4.53.48-2.7-3.83c-.48-.69-11.9-16.83-15.92-21.96-3.12-3.97-7.71-17.14-9.22-21.88l-3.83,1.33c.23.73,5.7,17.83,9.93,23.22,2.78,3.53,9.35,12.72,13.09,17.97-8.22-.85-25.38-2.6-32.75-3.13-7.14-.52-20.79-8.25-28.94-12.87-2.71-1.54-4.85-2.75-6.28-3.45l-1.71,3.82c1.32.65,3.52,1.89,6.06,3.33,6.06,3.44,14.22,8.06,21.34,10.88Z"/>
    <path class="cls-8" d="M54.79,121.28c3.77-2.04-.05-12.8-2.86-17.63-2.8-4.83-10.07-18.57-11.55-27.17-1.48-8.6-4.3-17.09-9.05-21.05-4.76-3.96,1.6,13.66,1.02,21.73-.58,8.07-2.81,19.38-.2,26.9,2.61,7.52,18.63,19.39,22.64,17.22Z"/>
    <path class="cls-8" d="M82.84,149.02c2.33,3.29-18.33,3.53-24.83,1.4-6.5-2.12-24.9-15.06-29.65-17.19-4.75-2.13-14.77-7.89-12.1-9.95,2.67-2.06,30.95,7.93,37.77,10.59,6.81,2.66,26.85,12.36,28.82,15.15Z"/>
    <path class="cls-8" d="M111.45,165.03c2.77,2.45-18.43,5.79-25.12,6.35-6.7.57-26.31-5.37-32.09-8.68-5.79-3.31,11.53-2.53,19.47-2.78,7.94-.25,20.93,2.17,24.74.86,3.81-1.31,12.28,3.6,13,4.24Z"/>
    <path class="cls-8" d="M141.26,194.59c1.71,3.54-9.27,2.19-17.2,2.44-7.94.25-24.11,2.05-29.07-1.05-4.96-3.1-18.38-7.45-17.36-9.93,1.02-2.48,26.28-.12,32.47-.36,6.18-.24,29.4,5.25,31.16,8.9Z"/>
  </g>
  <g>
    <path class="cls-10" d="M101.34,279.59s12.08-1.72,13.87,10.76c1.88,13.12-7.26,28.75-18.75,27.9-11.37-.84-16.48-9.44-16.48-9.44l-26.44-58.89,47.81,29.67Z"/>
    <g>
      <path class="cls-10" d="M27.72,206.94c.44,5.11,12.9,24.87,16.82,33.06,3.86,8.05,18.88,28.74,22.68,39.39.22.62.4,1.2.54,1.74,2.61,10.3,11.57,10.19,15.83,9.08,4.26-1.1,4.91-2.16,14.73-8.53,9.64-6.25,6.79-11.18,3.47-17.91,0,0-44.5-49.08-49.06-55.64-4.41-6.35-6.52-11.2-9.87-13.82-1.64-1.29-5.44.55-8.82,3.34-3.47,2.86-6.53,6.75-6.31,9.28Z"/>
      <path class="cls-11" d="M81.9,282.6c1.12-.02,2.28-.2,3.43-.75.79-.38,1.55-.94,2.28-1.47.28-.21.57-.41.85-.61,3.17-2.18,6.57-3.09,9.86-3.97l.28-.07.18-.37c.41-.83.6-1.91.52-3.02-.1-1.43-.61-2.8-1.33-3.57-.77-.83-1.64-1.11-2.49-1.38-.29-.09-.58-.19-.86-.3-.27-.11-.54-.25-.8-.38-.52-.26-1.06-.54-1.64-.66-1.74-.36-3.53.73-4.98,1.61l-2.81,1.71c-.2.12-.89.61-1.16,1.62-.14.5-.14,1.03,0,1.48.13.45.36.67.49.79l2.74,2.62.77-2.09-2.41-2.29,2.74-1.67c1.38-.84,2.94-1.8,4.35-1.49.47.1.93.34,1.43.59.29.15.58.29.87.42.3.13.62.23.93.33.76.25,1.48.48,2.05,1.1.4.43.7,1.24.76,2.01.02.3,0,.56-.05.79-3.25.87-6.6,1.8-9.8,4-.29.2-.58.41-.88.62-.72.52-1.39,1.01-2.09,1.35-1.8.87-3.69.68-5.5.5-.78-.08-1.58-.16-2.21-.67-.55-.45-1-1.25-1.41-2.05-.59-1.16-1.29-2.73-1.55-4.58-.24-1.73-.01-3.56.58-4.79.71-1.48,1.93-2.18,3.13-2.73,6.98-3.14,14.18-3.39,20.93-.7l.4-2.21c-6.94-2.75-14.34-2.49-21.51.73-1.46.66-2.96,1.55-3.96,3.63-.9,1.86-1.25,4.44-.92,6.9.31,2.28,1.11,4.1,1.79,5.44.48.96,1.04,1.94,1.78,2.55.85.7,1.83.8,2.69.88.82.08,1.68.17,2.58.16Z"/>
      <path class="cls-7" d="M27.72,206.94c.44,5.11,12.9,24.87,16.82,33.06,3.86,8.05,18.88,28.74,22.68,39.39.31-8.18,1.7-14.93,6.35-18.79-4.71-3.03-12.16-7.06-15.61-12.3-2.65-4.01-4.43-9.11-6.47-13.66-4.44-9.91-19.17-27.81-18.9-29.33.58-3.15,1.18-5.62,1.44-7.64-3.47,2.86-6.53,6.75-6.31,9.28Z"/>
    </g>
    <path class="cls-11" d="M92.51,313.6c6.25-.03,13.9-3.9,16.43-7.95,1.24-1.98,1.38-4.98.4-8.01-1.54-4.74-6.07-9.69-10.05-7.23l-.42.26c-4.31,2.67-8.07,4.99-8.45,8.58-.26,2.4,1.07,3.93,1.5,4.43,4.21,4.87,8.69-.45,8.88-.67l-.78-2.16c-.15.18-3.84,4.49-7.24.58-.63-.73-.98-1.45-.93-1.92.2-1.98,4.56-4.68,7.42-6.45l.42-.26c3.25-2.02,7.11,2.27,8.36,6.18.44,1.37.79,3.31-.09,4.69-3.1,4.92-15.84,9.81-20.9,5.56-1.18-.99-1.7-2.43-1.62-4.41.21-4.98,4.23-12.41,8.73-16.27,5.8-4.98,13.8.85,13.88.91l.6-2.32c-.36-.26-8.64-6.27-15.03-.82-4.38,3.74-9.34,11.88-9.65,18.56-.1,2.11.23,5.02,2.35,6.81,1.58,1.33,3.76,1.89,6.17,1.88Z"/>
    <path class="cls-10" d="M12.23,216.37c-.62,3.81,5.36,10.19,7.66,21.01,2.42,11.38,12.94,44.79,13.57,49.85.64,5.17,8.6,13.05,15.21,12.44,6.63-.6,13.28-7.08,15.24-14.92,1.9-7.61-1.03-15.39-4.4-20.57-3.3-5.06-25.57-43.66-27-46.67-1.42-2.97-4.81-11.66-4.81-11.66,0,0-1.74-.51-3.92-.65-1.65-.11-3.54-.02-5.12.66-3.67,1.59-5.81,6.77-6.42,10.51Z"/>
    <path class="cls-11" d="M50.15,296.72c1.02-.01,2.17-.39,3.46-1.28,5.43-3.79,8.1-6.92,8.95-10.45.54-2.23.33-4.53-.62-7.04-1.61-4.25-7.98-8.08-13.63-8.28-3.95-.13-7.18,1.47-9.39,4.67-2.13,3.09-3.33,6.2-3.55,9.25-.33,4.58,1.72,7.12,1.81,7.23l1.01-2.14s-1.66-2.07-1.41-5.47c.16-2.28,1.14-4.73,2.88-7.28,2.35-3.44,5.81-4.05,8.3-3.96,5.66.2,11.51,4.18,12.76,7.52.71,1.89.89,3.51.54,4.94-.63,2.6-3.14,5.36-7.93,8.69-3.42,2.38-5.68.3-6.96-1.84-1.96-3.28-2.57-8.15-2.25-9.61.11-.49.49-1.06,1.05-1.56,1.88-1.67,5.31-2.33,7.47-.65.74.58,1.14,1.34,1.16,2.27.05,1.62-.96,3.44-.98,3.45l.9,1.51c.06-.11,1.56-2.78,1.47-5.57-.05-1.69-.65-2.99-1.77-3.86-2.56-1.99-6.47-1.13-8.64.79-1.27,1.13-1.77,2.41-1.97,3.29-.59,2.66.31,8.32,2.44,11.91,1.04,1.76,2.64,3.48,4.88,3.46Z"/>
    <path class="cls-7" d="M12.23,216.37c-.62,3.81,5.36,10.19,7.66,21.01,2.42,11.38,12.94,44.79,13.57,49.85-.76-9.53,4.25-16.42,3.73-20.22-.51-3.75-4.11-10.09-11-23.52-6.49-12.63-9.57-26.15-8.58-31.78.63-3.6,3.95-5.57,6.17-6.51-1.65-.11-3.54-.02-5.12.66-3.67,1.59-5.81,6.77-6.42,10.51Z"/>
    <g>
      <path class="cls-10" d="M.49,244.21c1.52,3.36,5.35,22.49,6.07,34.42.54,8.91-.22,23.89.44,33.83.27,4.05.77,7.22,1.69,8.68,3.27,5.24,21.04,11.83,26.97,1.1,5.72-10.37,2.03-22.46.79-24.06-1.23-1.58-9.12-36.1-11.34-44.65-2.13-8.24-4.84-26.67-8.1-28.91,0,0-2.73.43-5.75,1.15-2.61.62-5.44,1.46-6.93,2.42-3.23,2.09-5.33,12.72-3.84,16.03Z"/>
      <path class="cls-11" d="M24.31,325.27c2.94,0,5.59-.93,7.23-3.16,1.3-1.78,1.91-4.24,1.73-6.93-.4-5.71-4.46-11.58-9.28-11.16-4.3.41-7.4,2.12-8.76,4.86-.51,1.03-.75,2.16-.67,3.17.19,2.37,4.79,4.14,8.63,5.22l.65-2.68c-3.52-.97-7.49-2.74-7.81-3.81,0-.06,0-.25.17-.57.69-1.4,3.05-3.17,7.42-3.59,4.21-.45,7.84,4.78,8.17,9.59.16,2.4-.64,3.48-.9,3.84-3.31,4.5-13.34,2.37-18.53-2.48-1.48-1.38-2.03-3.19-1.65-5.36.57-3.27,3.29-7.39,6.61-10.02,5.16-4.11,14.14-1.46,17,5.12l1.25-1.93c-3.23-7.36-12.63-10.09-18.46-5.47-3.97,3.15-7.06,8-7.83,12.4-.4,2.28-.38,5.49,2.05,7.78,3.1,2.92,8.36,5.19,12.99,5.19Z"/>
      <path class="cls-7" d="M.49,244.21c1.52,3.36,5.35,22.49,6.07,34.42.54,8.91-.22,23.89.44,33.83,1.1-3.12,2.35-6.12,3.71-8.94.88-1.82,1.85-3.68,2.22-5.71.23-1.2.22-2.34.21-3.46-.11-17.14-.21-33.3-2.41-46.82-.62-3.79-1.41-7.41-2.8-10.21-1.05-2.12-2.41-4.87-.93-7.89,1.15-2.34,3.07-2.14,4.26-3.66-2.61.62-5.44,1.46-6.93,2.42-3.23,2.09-5.33,12.72-3.84,16.03Z"/>
    </g>
    <g>
      <path class="cls-10" d="M28.02,220.35s5.24,19.97,6.48,28.09c1.29,8.42,5.3,40.77,5.3,40.77,0,0,2.34,19.29,3.25,26.06.94,6.95,2.75,9.9,12.45,12.88,9.87,3.04,21.78-7.04,22.5-17.62.31-4.51-7.15-24.84-9.25-33.93-2.03-8.76-22.05-56.13-22.29-61.13-.21-4.44-1.83-6.3-7.66-6.39-.57,0-1.19,0-1.84.03-7.31.29-8.93,11.23-8.93,11.23Z"/>
      <path class="cls-7" d="M77.9,312.06c.46,0,.88-.69.94-1.54.2-3.03-1.89-9.88-5.2-20.44-1.65-5.27-3.33-10.61-4.15-14.14-.97-4.15-6.08-17.17-11.19-30.19-5.09-12.98-11.03-28.11-11.15-30.6-.25-5.14-2.39-6.97-8.15-7.05-.58,0-1.2,0-1.86.03-.36.01-.73.47-.83,1.02s.12.98.48.97c.65-.03,1.26-.03,1.83-.03,5.83.09,6.99,1.98,7.16,5.71.13,2.69,4.35,13.75,11.23,31.48,4.82,12.42,10.1,26.02,11.01,29.99.84,3.67,2.52,9.09,4.18,14.45,2.13,6.86,5.13,16.58,4.98,18.82-.06.84.27,1.53.73,1.53Z"/>
      <path class="cls-7" d="M28.02,220.35s5.24,19.97,6.48,28.09c1.29,8.42,5.3,40.77,5.3,40.77,0,0,2.34,19.29,3.25,26.06.94,6.95,2.75,9.9,12.45,12.88,9.87,3.04,21.78-7.04,22.5-17.62-.38-7.84-4.96-11.63-12.99-15.86-7.87-4.13-17.39,3.94-18.12-1.91-.71-5.71-13.94-69.49-14.38-75.25-.4-5.2,5.4-8.02,6.29-8.42-.57,0-1.19,0-1.84.03-7.31.29-8.93,11.23-8.93,11.23Z"/>
      <path class="cls-11" d="M59.87,325.74c4.81,0,9.63-3.02,12.81-8.17,1.82-2.96,2.82-6.33,2.82-9.47l-1.48.36c0,2.29-.8,4.83-2.24,7.16-2.83,4.56-8.4,8.52-14.34,6.95-4.73-1.26-7.9-4.81-8.49-9.45-.28-2.16.05-4.29.93-6.19,1.09-2.33,4.48-4.67,8.27-5.69,4.74-1.28,8.81-.3,10.39,2.52,1.37,2.45,1.8,5.15,1.16,7.38-.75,2.65-2.89,4.38-5.43,4.39-4.58.02-8.27-2.22-8.68-3.5.04-.06.11-.14.2-.24,2.39-2.47,5.85-.47,5.89-.45l.68-2.57c-.17-.1-4.07-2.35-7.09.75-1.11,1.14-1.22,2.46-1.19,3.14.16,3.67,5.86,5.63,9.94,5.62,3.23-.01,5.92-2.41,6.99-6.22.95-3.36.44-7.12-1.35-10.31-2.23-3.96-7.36-4.17-11.44-3.07-3.41.92-7.66,3.2-9.37,6.84-1.24,2.64-1.72,5.74-1.35,8.73.7,5.6,4.14,9.68,9.46,11.1.96.26,1.94.38,2.92.38Z"/>
    </g>
  </g>
  <g id="_049---Spices" data-name="049---Spices">
    <path id="Shape" class="cls-5" d="M269.98,200.08l95.84-15.01,7.04,3.1-1.05,5.4c-6.18,32.83-33.74,56.5-65.79,56.52h-7.28l-28.75-50.02Z"/>
    <path id="Shape-2" data-name="Shape" class="cls-6" d="M193.31,135.06v26.11l103.89,58.42c32.63-1.7,60.57-13.96,75.66-31.41,7.52-8.05,11.85-18.77,12.12-30.01v-23.11h-191.67Z"/>
    <path id="Shape-3" data-name="Shape" class="cls-2" d="M199.92,157.37c-4.3-6.57-6.61-14.35-6.61-22.31,0-28.16,31.05-51.77,72.69-58.22l78.78,9.4c27.22,12.25,48.54,36.36,37.18,64.12-10.64,26.06-47.92,45.27-92.82,45.27-6.04,0-7.71-.25-8.24-.25l-80.98-38.01Z"/>
    <path id="Shape-4" data-name="Shape" class="cls-4" d="M363.42,145.06c-8.53,17.26-38.33,30.01-74.27,30.01-12.52.08-25-1.6-37.09-5l-33.54-19.51c-2.25-2.65-3.96-5.75-5.03-9.1,13.32-8.7,33.97-25.01,37.38-41.02,4.74-22.31,42.41-47.87,62.25-45.42,23.19,3.15,35.36,39.31,47.49,65.32.72,1.55,4.22,8.95,4.79,9.3,1.27,5.21.56,10.72-1.96,15.41Z"/>
    <path id="Shape-5" data-name="Shape" class="cls-5" d="M250.81,100.44c-3.45,16.01-23.96,32.36-37.38,41.02-6.09-20.56,17.25-35.01,37.38-41.02Z"/>
    <g>
      <ellipse id="Oval" class="cls-3" cx="284.36" cy="95.04" rx="4.79" ry="5"/>
      <ellipse id="Oval-2" data-name="Oval" class="cls-3" cx="313.11" cy="110.05" rx="4.79" ry="5"/>
      <ellipse id="Oval-3" data-name="Oval" class="cls-3" cx="308.32" cy="140.06" rx="4.79" ry="5"/>
      <ellipse id="Oval-4" data-name="Oval" class="cls-3" cx="274.77" cy="125.05" rx="4.79" ry="5"/>
      <ellipse id="Oval-5" data-name="Oval" class="cls-3" cx="313.11" cy="85.04" rx="4.79" ry="5"/>
    </g>
    <path id="Shape-6" data-name="Shape" class="cls-5" d="M286.61,283.21l-1.05,5.4c-6.18,32.83-33.74,56.5-65.79,56.52h-33.54c-32.12.08-59.79-23.62-65.98-56.52l-1.05-5.4h167.43Z"/>
    <path id="Shape-7" data-name="Shape" class="cls-6" d="M107.06,230.09v23.11c0,34.06,43.13,61.92,95.84,61.92s95.84-27.61,95.84-61.67v-23.36H107.06Z"/>
    <path id="Shape-8" data-name="Shape" class="cls-2" d="M179.75,171.87c-41.64,6.45-72.69,30.06-72.69,58.22,0,33.31,43.13,60.32,95.84,60.32,44.66,0,82.18-19.21,92.82-45.02,11.31-27.66-9.58-51.82-37.18-64.12l-78.78-9.4Z"/>
    <path id="Shape-9" data-name="Shape" class="cls-9" d="M277.17,240.1c-8.53,17.26-38.33,30.01-74.27,30.01s-65.74-12.75-74.27-30.01c-.56-1.16-1.04-2.37-1.44-3.6,13.32-8.7,33.97-25.01,37.38-41.02,3.01-14.02,19-29.32,35.4-38.05,9.69-5.16,19.53-8.02,26.9-6.97,23.19,3.15,35.36,39.31,47.49,65.32.72,1.55,4.22,8.95,4.79,9.3,1.16,5.08.46,10.44-1.96,15.01Z"/>
    <path id="Shape-10" data-name="Shape" class="cls-5" d="M164.56,195.48c-3.45,16.01-23.96,32.36-37.38,41.02-6.09-20.56,17.25-35.01,37.38-41.02h0Z"/>
    <ellipse id="Oval-6" data-name="Oval" class="cls-1" cx="198.1" cy="195.08" rx="4.79" ry="5"/>
    <ellipse id="Oval-7" data-name="Oval" class="cls-1" cx="236.44" cy="220.09" rx="4.79" ry="5"/>
    <ellipse id="Oval-8" data-name="Oval" class="cls-1" cx="207.69" cy="245.1" rx="4.79" ry="5"/>
    <ellipse id="Oval-9" data-name="Oval" class="cls-1" cx="169.35" cy="240.1" rx="4.79" ry="5"/>
    <ellipse id="Oval-10" data-name="Oval" class="cls-1" cx="226.85" cy="180.07" rx="4.79" ry="5"/>
  </g>
</svg>