<?xml version="1.0" encoding="UTF-8"?>
<svg id="angry_people_set" data-name="angry people set" xmlns="http://www.w3.org/2000/svg" xmlns:xlink="http://www.w3.org/1999/xlink" viewBox="0 0 400 400">
  <defs>
    <style>
      .cls-1 {
        fill: #ff9e1f;
      }

      .cls-2 {
        fill: #db9a6e;
      }

      .cls-3 {
        fill: #a56c42;
      }

      .cls-4 {
        fill: none;
      }

      .cls-5 {
        fill: #ed8f20;
      }

      .cls-6 {
        fill: #5f9141;
      }

      .cls-7 {
        fill: #7a5230;
      }

      .cls-8 {
        fill: #9e6e4d;
      }

      .cls-9 {
        fill: #6ead4d;
      }

      .cls-10 {
        fill: #7ec157;
      }

      .cls-11 {
        fill: #ce3430;
      }

      .cls-12 {
        fill: #db790e;
      }

      .cls-13 {
        fill: #ee4036;
      }

      .cls-14 {
        clip-path: url(#clippath);
      }
    </style>
    <clipPath id="clippath">
      <path class="cls-4" d="M327.76,88.9c-.02-6.98-4.39-13.21-10.94-15.61,5.88-5.31,7.11-14.07,2.9-20.79-2.59-1.62-5.57-2.48-8.62-2.49-5.71,0-11.02,2.94-14.05,7.78-2.48-1.44-5.3-2.21-8.17-2.22-5.48,0-10.61,2.7-13.72,7.22-6.7-2.75-14.33-2.07-20.44,1.82-10.3,6.5-13.39,20.12-6.89,30.43.76,1.2,1.63,2.33,2.6,3.36-7.01,5.77-8.02,16.13-2.26,23.14.22.27.46.54.7.8-9.15.58-16.09,8.46-15.51,17.61.38,6.07,4.06,11.44,9.57,14-2.22,3.13-3.59,6.79-3.96,10.6l23.67,43.78c16.4-12.16,29.28-28.46,37.34-47.22,9.2,0,16.67-7.46,16.67-16.67,0-.04,0-.07,0-.11,12.22-9.1,14.75-26.39,5.65-38.61-.73-.98-1.52-1.9-2.37-2.77,4.87-3.01,7.84-8.33,7.83-14.05Z"/>
    </clipPath>
  </defs>
  <g id="Layer_11" data-name="Layer 11">
    <path class="cls-6" d="M283.32,222.22l2.05-1.37c9.47-6.32,16.57-15.61,20.17-26.41,18.41,0,33.33-12.44,33.33-27.78,0-2.69-.47-5.36-1.38-7.89,7.62-3.69,12.47-11.41,12.49-19.89,0-.26-.07-.51-.08-.76,11.83-2.95,19.04-14.93,16.09-26.76-1.48-5.96-5.38-11.03-10.75-14,.87-4.9.56-10.23-11.99-18.16-1.33-.89-2.89-1.39-4.5-1.43-4.57.03-8.94,1.94-12.05,5.28l-110.04,139.15h66.66Z"/>
    <path class="cls-9" d="M222.32,147.89c.37-3.82,1.73-7.48,3.96-10.6-8.31-3.86-11.92-13.73-8.06-22.04,2.56-5.51,7.93-9.19,14-9.57-6.21-6.63-5.87-17.03.76-23.24.26-.24.52-.48.8-.7-8.36-8.87-7.94-22.83.92-31.18,1.03-.97,2.16-1.85,3.36-2.6,6.11-3.89,13.73-4.57,20.44-1.82,3.11-4.52,8.24-7.22,13.72-7.22,2.87.01,5.69.78,8.17,2.22,4.86-7.76,15.08-10.11,22.84-5.25,3.43,2.15,5.96,5.48,7.1,9.36,8.75,2.55,13.78,11.72,11.23,20.47-.85,2.91-2.49,5.54-4.73,7.58,6.56,2.4,10.93,8.63,10.94,15.61,0,5.73-2.96,11.05-7.83,14.05,10.64,10.91,10.41,28.38-.5,39.02-.87.85-1.8,1.64-2.77,2.37.06,9.2-7.35,16.71-16.55,16.78-.04,0-.07,0-.11,0-8.95,20.88-23.86,38.66-42.86,51.11l-34.81-64.33Z"/>
    <path class="cls-10" d="M327.76,88.9c-.02-6.98-4.39-13.21-10.94-15.61,5.88-5.31,7.11-14.07,2.9-20.79-2.59-1.62-5.57-2.48-8.62-2.49-5.71,0-11.02,2.94-14.05,7.78-2.48-1.44-5.3-2.21-8.17-2.22-5.48,0-10.61,2.7-13.72,7.22-6.7-2.75-14.33-2.07-20.44,1.82-10.3,6.5-13.39,20.12-6.89,30.43.76,1.2,1.63,2.33,2.6,3.36-7.01,5.77-8.02,16.13-2.26,23.14.22.27.46.54.7.8-9.15.58-16.09,8.46-15.51,17.61.38,6.07,4.06,11.44,9.57,14-2.22,3.13-3.59,6.79-3.96,10.6l23.67,43.78c16.4-12.16,29.28-28.46,37.34-47.22,9.2,0,16.67-7.46,16.67-16.67,0-.04,0-.07,0-.11,12.22-9.1,14.75-26.39,5.65-38.61-.73-.98-1.52-1.9-2.37-2.77,4.87-3.01,7.84-8.33,7.83-14.05Z"/>
    <g class="cls-14">
      <path class="cls-6" d="M312.18,99.09l-9.72-6.49c-4.65,7-11.18,12.55-18.84,16.01.15-2.06.33-4.12.33-6.21,0-16.48-2.02-32.89-6.02-48.88l-11.33,2.84c1.38,5.55,2.44,11.18,3.31,16.83-8.3-4.29-17.51-6.54-26.86-6.56v11.69c10.11.02,19.94,3.3,28.04,9.35l.58.42c.36,4.77.58,9.54.58,14.32,0,7.54-1.21,15.04-3.57,22.2-6.05-8.64-13.64-16.08-22.4-21.95l-6.49,9.72c9.58,6.44,17.51,15.05,23.15,25.12-3.77,6.67-8.59,12.69-14.28,17.83l-18.39,16.36,7.76,8.76,18.44-16.4c12.42-11.23,21.16-25.96,25.06-42.25,12.54-3.79,23.37-11.82,30.63-22.72h0Z"/>
    </g>
    <path class="cls-6" d="M100.93,116.68l4.63-83.33h-33.33l6.58,92.17,22.12-8.84Z"/>
    <path class="cls-10" d="M75.52,125.52l-42.17-42.17,22.22-22.22,37.49,56.22-17.53,8.17Z"/>
    <path class="cls-5" d="M83.34,222.22l-15.55-35.06c-4.39-9.85-6.66-20.51-6.67-31.29,0-21.65,17.55-39.2,39.2-39.2,16.48,0,31.21,10.31,36.84,25.8,3.4,9.34,6.37,18.82,8.92,28.43l15.03,51.32h-77.77Z"/>
    <path class="cls-1" d="M137.16,142.48c-4.64-12.68-15.49-22.07-28.7-24.85-17.92,3.99-30.67,19.89-30.68,38.25,0,10.78,2.28,21.44,6.67,31.29l15.55,35.06h61.11l-15-51.32c-2.57-9.6-5.55-19.07-8.95-28.43Z"/>
    <path class="cls-10" d="M205.55,155.56h-11.11v-11.11c.03-8.12-4.56-15.54-11.83-19.15l-7.32-3.63,4.97-9.94,7.32,3.66c11.04,5.47,18.01,16.74,17.98,29.06v11.11Z"/>
    <path class="cls-11" d="M250.66,222.4c6.65-7.8,10.35-17.7,10.44-27.95,0-27.61-27.36-50-61.11-50s-61.11,22.38-61.11,50c.09,10.17,3.73,20,10.29,27.78l101.48.18Z"/>
    <path class="cls-13" d="M200,144.45c-6.76,0-13.49.93-20,2.78-11.57,8.44-18.55,21.79-18.89,36.11.5,16.02,9.1,30.69,22.84,38.95l66.71.12c6.65-7.8,10.35-17.7,10.44-27.95,0-27.61-27.36-50-61.11-50h0Z"/>
    <path class="cls-7" d="M44.45,277.77h311.09v33.33H44.45v-33.33Z"/>
    <path class="cls-3" d="M33.34,222.22h333.31v55.55H33.34v-55.55Z"/>
    <path class="cls-2" d="M44.45,230.8c0,19.81,16.06,35.86,35.86,35.86h286.34v-44.44H44.45v8.58Z"/>
    <path class="cls-3" d="M33.34,311.11h333.31v55.55H33.34v-55.55Z"/>
    <path class="cls-2" d="M44.45,319.68c0,19.81,16.06,35.86,35.86,35.86h286.34v-44.44H44.45v8.58Z"/>
    <g>
      <path class="cls-7" d="M61.12,244.44h11.11v11.11h-11.11v-11.11Z"/>
      <path class="cls-7" d="M61.12,333.33h11.11v11.11h-11.11v-11.11Z"/>
      <path class="cls-7" d="M327.76,244.44h11.11v11.11h-11.11v-11.11Z"/>
      <path class="cls-7" d="M327.76,333.33h11.11v11.11h-11.11v-11.11Z"/>
    </g>
    <path class="cls-8" d="M355.54,311.11v-27.78H82.33c-11.72,0-21.22,9.5-21.22,21.22h0v6.56h294.42Z"/>
    <path class="cls-6" d="M188.89,166.67l11.11,16.67,16.67-16.67,22.22,11.11v-4.21c0-6.79-1.22-13.53-3.59-19.9-20.67-11.59-45.72-12.3-67.01-1.91-4.64,5.81-7.17,13.02-7.17,20.45l27.78-5.56Z"/>
    <path class="cls-12" d="M93.1,150.17l-31.86,7.97c.11,3.75.5,7.48,1.16,11.17l33.41-8.33-2.7-10.8Z"/>
    <path class="cls-12" d="M98.65,172.39l-33.33,8.33c.74,2.17,1.53,4.33,2.46,6.43l1.76,3.97,31.84-7.96-2.73-10.77Z"/>
    <path class="cls-12" d="M104.21,194.61l-29.83,7.46,4.58,10.31,27.95-6.99-2.7-10.78Z"/>
  </g>
</svg>